<svg viewBox="0 0 2000 1000" xmlns="http://www.w3.org/2000/svg"><path fill="#fff" d="M0 0h2000v1000H0z"/><rect x="346" y="673" width="6" height="17" fill="#DA9FF9" rx="0" transform="matrix(.88638 .48845 -.44822 .88119 446.266 -132.35)"/><rect x="725" y="730" width="5" height="11" fill="#98ACF8" rx="0" transform="matrix(-.94077 .13951 -.4739 -.99269 1971.169 1414.997)"/><rect x="1413" y="119" width="7" height="10" fill="#DA9FF9" rx="0" transform="matrix(.1395 .97542 -1.06258 -.26136 1437.235 -1026.195)"/><rect x="995" y="143" width="6" height="8" fill="#DA9FF9" rx="0" transform="matrix(-1.00065 .01748 .10679 -1.00122 1945.804 329.04)"/><rect x="588" y="590" width="5" height="9" fill="#B088F9" rx="0" transform="matrix(.94775 .40451 -.23933 .95298 94.023 -52.687)"/><rect x="1101" y="285" width="6" height="17" fill="#DA9FF9" rx="0" transform="matrix(-.99326 -.03582 -.52407 -1.02568 2532.559 888.958)"/><rect x="1714" y="605" width="8" height="13" fill="#DA9FF9" rx="0" transform="matrix(.90384 .56782 -.42113 .84183 522.994 -1181.72)"/><rect x="707" y="321" width="5" height="8" fill="#B088F9" rx="0" transform="matrix(-.7913 .67747 -.59725 -.7524 1479.9 -23.507)"/><rect x="1285" y="381" width="8" height="22" fill="#B088F9" rx="0" transform="matrix(-.72273 .76651 -.69817 -.64318 2470.018 -388.92)"/><rect x="1513" y="942" width="9" height="17" fill="#98ACF8" rx="0" transform="matrix(-.94552 0 -.60896 -1.05762 3925.832 2478.286)"/><rect x="534" y="834" width="8" height="23" fill="#B088F9" rx="0" transform="matrix(-.99756 0 -.37623 -1.00244 1662.792 1730.685)"/><rect x="448" y="794" width="6" height="8" fill="#DA9FF9" rx="0" transform="matrix(.0215 .91963 -1.09931 -.50976 1536.618 936.574)"/><rect x="269" y="94" width="8" height="15" fill="#B088F9" rx="0" transform="matrix(.50106 1.03046 -.97919 -.01799 281.033 -109.922)"/><rect x="860" y="553" width="5" height="12" fill="#bedcfa" rx="0" transform="matrix(-1.00209 .32577 -.1594 -.9461 1741.58 776.774)"/><rect x="776" y="906" width="6" height="9" fill="#B088F9" rx="0" transform="matrix(.78251 .44268 -.65459 .90763 681.237 -370.223)"/><rect x="528" y="546" width="6" height="10" fill="#B088F9" rx="0" transform="matrix(.6542 .86721 -.77541 .50069 731.655 -213.197)"/><rect x="287" y="387" width="5" height="6" fill="#98ACF8" rx="0" transform="matrix(1.00003 .0524 .00058 1 39.163 -30.344)"/><rect x="1864" y="764" width="7" height="18" fill="#B088F9" rx="0" transform="matrix(.37654 1.03552 -1.01862 -.14553 2237.372 -477.376)"/><rect x="1948" y="467" width="5" height="11" fill="#98ACF8" rx="0" transform="matrix(-.39707 .8388 -.93432 -.54472 3246.675 -872.149)"/><rect x="726" y="718" width="9" height="19" fill="#bedcfa" rx="0" transform="matrix(-.0021 .97542 -1.02464 -.26136 1579.391 307.763)"/><rect x="556" y="154" width="7" height="20" fill="#B088F9" rx="0" transform="matrix(-.94657 .45427 -.3436 -.89155 1116.386 75.59)"/><rect x="314" y="359" width="8" height="8" fill="#DA9FF9" rx="0" transform="matrix(.93953 .37742 -.32414 .93415 108.778 -57.07)"/><rect x="342" y="906" width="8" height="15" fill="#DA9FF9" rx="0" transform="matrix(-.84547 .54672 -.52718 -.84187 1020.916 1523.658)"/><rect x="1049" y="962" width="5" height="5" fill="#B088F9" rx="0" transform="matrix(-.69705 .37681 -.83797 -.98162 2870.305 1856.714)"/><rect x="1535" y="42" width="7" height="11" fill="#bedcfa" rx="0" transform="matrix(.82576 .36106 -.61845 .9406 319.838 -741.572)"/><rect x="717" y="390" width="5" height="10" fill="#B088F9" rx="0" transform="matrix(.53643 1.01108 -.96093 .05299 878.476 -239.443)"/><rect x="1664" y="489" width="6" height="14" fill="#98ACF8" rx="0" transform="matrix(-.92725 .40698 -.37445 -.9141 3359.704 329.164)"/><rect x="499" y="108" width="5" height="6" fill="#bedcfa" rx="0" transform="matrix(-.73307 .62718 -.65614 -.80276 916.367 -16.945)"/><rect x="1674" y="174" width="7" height="19" fill="#98ACF8" rx="0" transform="matrix(-.31724 1.01527 -.9905 .01772 2409.207 -1818.66)"/><rect x="92" y="570" width="5" height="14" fill="#98ACF8" rx="0" transform="matrix(-.99055 .20842 -.13783 -.98054 185.616 1129.682)"/><rect x="936" y="70" width="7" height="11" fill="#98ACF8" rx="0" transform="matrix(.81235 .95853 -.66446 .44697 275.453 -535.29)"/><rect x="1718" y="420" width="9" height="10" fill="#98ACF8" rx="0" transform="matrix(.95046 .3092 -.30887 .95164 199.653 -451.9)"/><rect x="544" y="169" width="8" height="13" fill="#98ACF8" rx="0" transform="matrix(.89559 .30944 -.4753 .95236 122.612 -189.933)"/><rect x="417" y="468" width="6" height="9" fill="#98ACF8" rx="0" transform="matrix(-.05183 1.01156 -.9931 .0885 924.925 -68.23)"/><rect x="685" y="485" width="9" height="11" fill="#B088F9" rx="0" transform="matrix(-.70405 .711 -.70242 -.711 1460.307 421.48)"/><rect x="727" y="80" width="5" height="14" fill="#98ACF8" rx="0" transform="matrix(-.97944 -.01784 -.0653 -1.02218 1419.959 344.006)"/><rect x="702" y="201" width="7" height="19" fill="#B088F9" rx="0" transform="matrix(1.00831 .38162 -.12476 .94454 44.707 -120.421)"/><rect x="701" y="303" width="7" height="8" fill="#bedcfa" rx="0" transform="matrix(-.1588 .86044 -1.06678 -.517 1263.65 -78.825)"/><rect x="321" y="291" width="5" height="14" fill="#DA9FF9" rx="0" transform="matrix(-.66781 .41919 -.88564 -.94151 912.034 523.62)"/><rect x="1672" y="509" width="6" height="13" fill="#98ACF8" rx="0" transform="matrix(.39554 .989 -.93424 .19224 1557.158 -1034.51)"/><rect x="1207" y="58" width="7" height="7" fill="#98ACF8" rx="0" transform="matrix(.78031 .82916 -.6797 .55928 328.338 -955.47)"/><rect x="1906" y="348" width="6" height="13" fill="#DA9FF9" rx="0" transform="matrix(.9544 .50936 -.31017 .88223 209.652 -559.545)"/><rect x="1822" y="679" width="7" height="15" fill="#bedcfa" rx="0" transform="matrix(.45036 .98655 -.8845 .28289 1571.888 -887.194)"/><rect x="1106" y="732" width="8" height="16" fill="#bedcfa" rx="0" transform="matrix(.51103 1.01156 -.94386 .0885 1474.515 -252.602)"/><rect x="1272" y="111" width="6" height="16" fill="#DA9FF9" rx="0" transform="matrix(-.56242 .88308 -.83335 -.46954 2073.91 -928.799)"/><rect x="551" y="636" width="9" height="12" fill="#DA9FF9" rx="0" transform="matrix(-.10408 1.0049 -.9915 -.0351 1270.236 47.924)"/><rect x="664" y="257" width="9" height="9" fill="#B088F9" rx="0" transform="matrix(-.63338 .56469 -.83186 -.83718 1378.54 196.881)"/><rect x="1776" y="128" width="6" height="7" fill="#B088F9" rx="0" transform="matrix(-.98828 -.07014 .12397 -1.00306 3470.409 575.163)"/><rect x="1067" y="867" width="5" height="13" fill="#DA9FF9" rx="0" transform="matrix(.96019 .2443 -.24223 .97983 110.284 -93.352)"/><rect x="42" y="105" width="8" height="20" fill="#bedcfa" rx="0" transform="matrix(-.95184 .07222 -.23521 -1.03275 105.695 242.77)"/><rect x="1722" y="680" width="6" height="8" fill="#bedcfa" rx="0" transform="matrix(-1.03136 -.14178 -.28524 -1.0088 3934.526 1953.894)"/><rect x="506" y="728" width="5" height="11" fill="#98ACF8" rx="0" transform="matrix(-.50059 .55127 -1.01287 -.88222 1774.82 1246.098)"/><rect x="230" y="400" width="8" height="22" fill="#bedcfa" rx="0" transform="matrix(-.90249 .32636 -.44306 -.94783 703.989 707.825)"/><rect x="225" y="388" width="9" height="11" fill="#bedcfa" rx="0" transform="matrix(-1.02915 .19268 .10467 -.99127 367.287 707.091)"/><rect x="1860" y="142" width="6" height="9" fill="#98ACF8" rx="0" transform="matrix(.84772 .93986 -.65053 .4584 505.26 -1102.042)"/><rect x="379" y="207" width="5" height="11" fill="#DA9FF9" rx="0" transform="matrix(.32571 .95645 -.94595 .29242 462.081 -207.865)"/><rect x="358" y="410" width="5" height="12" fill="#98ACF8" rx="0" transform="matrix(-.62114 .69561 -.79437 -.72033 952.929 483.781)"/><rect x="1411" y="543" width="6" height="13" fill="#98ACF8" rx="0" transform="matrix(.5323 .77026 -.8516 .64633 1115.295 -1043.428)"/><rect x="477" y="31" width="9" height="16" fill="#B088F9" rx="0" transform="matrix(.96826 .3908 -.27784 .92065 31.102 -176.666)"/><rect x="1526" y="304" width="5" height="6" fill="#DA9FF9" rx="0" transform="matrix(.86679 .72034 -.52144 .72034 395.355 -718.076)"/><rect x="1369" y="294" width="7" height="8" fill="#bedcfa" rx="0" transform="matrix(1.0434 .22499 .07472 .97452 7.212 -325.156)"/><rect x="178" y="430" width="8" height="20" fill="#DA9FF9" rx="0" transform="matrix(.1216 .98805 -1.05635 -.35962 703.72 477.543)"/><rect x="1012" y="942" width="7" height="16" fill="#B088F9" rx="0" transform="matrix(.62068 .9148 -.8168 .4073 1418.296 -419.129)"/><rect x="1253" y="850" width="8" height="14" fill="#bedcfa" rx="0" transform="matrix(.97989 .10531 -.17244 1.002 209.884 -288.425)"/><rect x="614" y="127" width="7" height="8" fill="#bedcfa" rx="0" transform="matrix(1.03485 .25945 .00784 .96828 7.69 -199.236)"/><rect x="1202" y="252" width="9" height="23" fill="#DA9FF9" rx="0" transform="matrix(-.98104 -.0719 -.11977 -1.0281 2392.11 921.957)"/><rect x="1109" y="146" width="5" height="9" fill="#98ACF8" rx="0" transform="matrix(1.02274 .73826 -.36689 .71293 131.445 -520.764)"/><rect x="484" y="971" width="8" height="23" fill="#bedcfa" rx="0" transform="matrix(-.79475 .47409 -.61462 -.89162 1759.112 1558.584)"/><rect x="939" y="141" width="9" height="10" fill="#98ACF8" rx="0" transform="matrix(.8024 .90763 -.71042 .44268 364.817 -642.377)"/><rect x="358" y="544" width="8" height="12" fill="#98ACF8" rx="0" transform="matrix(-.34459 .891 -.94675 -.45399 1074.985 477.15)"/><rect x="1027" y="892" width="5" height="11" fill="#bedcfa" rx="0" transform="matrix(.48611 .79575 -.87688 .62171 1302.907 -624.403)"/><rect x="825" y="84" width="9" height="10" fill="#B088F9" rx="0" transform="matrix(.47027 .91521 -.87335 .42677 511.777 -824.732)"/><rect x="242" y="526" width="5" height="14" fill="#DA9FF9" rx="0" transform="matrix(-.86732 .35974 -.52036 -.93715 782.415 965.934)"/><rect x="1249" y="121" width="7" height="12" fill="#bedcfa" rx="0" transform="matrix(-.4292 .82028 -.91857 -.57436 1930.387 -761.811)"/><rect x="327" y="683" width="6" height="17" fill="#B088F9" rx="0" transform="matrix(-.1222 .98178 -.9948 -.19084 1094.777 505.238)"/><rect x="775" y="480" width="8" height="10" fill="#DA9FF9" rx="0" transform="matrix(-.70662 .53024 -.7551 -.84857 1813.933 510.699)"/><rect x="1169" y="316" width="9" height="12" fill="#B088F9" rx="0" transform="matrix(.74259 .64367 -.6686 .7671 521.91 -741.852)"/><rect x="674" y="741" width="6" height="14" fill="#bedcfa" rx="0" transform="matrix(.29317 .92107 -.96125 .39097 1089.095 -144.365)"/><rect x="841" y="489" width="7" height="12" fill="#98ACF8" rx="0" transform="matrix(-1.00083 -.0885 -.14017 -1.01156 1792.833 1219.37)"/><rect x="883" y="146" width="8" height="20" fill="#DA9FF9" rx="0" transform="matrix(.94798 .51504 -.3639 .85717 130.414 -434.557)"/><rect x="1495" y="91" width="9" height="18" fill="#98ACF8" rx="0" transform="matrix(-.67637 .57436 -.7751 -.82028 2625.935 -600.645)"/><rect x="1644" y="748" width="9" height="20" fill="#98ACF8" rx="0" transform="matrix(.57692 1.02218 -.96823 .01784 1813.02 -590.197)"/><rect x="84" y="605" width="5" height="10" fill="#B088F9" rx="0" transform="matrix(.63765 .79393 -.76137 .62028 441.485 173.572)"/><rect x="677" y="331" width="9" height="12" fill="#bedcfa" rx="0" transform="matrix(.67764 .79575 -.72724 .62171 442.09 -319.045)"/><rect x="1227" y="727" width="5" height="9" fill="#98ACF8" rx="0" transform="matrix(-.93409 .0891 -.5463 -1.01845 3025.123 1628.283)"/><rect x="1859" y="800" width="8" height="11" fill="#bedcfa" rx="0" transform="matrix(-.82038 .3956 -.59509 -.93198 3947.681 1114.273)"/><rect x="1051" y="476" width="7" height="15" fill="#bedcfa" rx="0" transform="matrix(1.00825 .08749 .0943 1 50.539 -184.514)"/><rect x="970" y="872" width="8" height="22" fill="#DA9FF9" rx="0" transform="matrix(-.9325 .21338 -.29936 -1.00388 2010.566 1786.456)"/><rect x="377" y="555" width="7" height="16" fill="#98ACF8" rx="0" transform="matrix(-.53337 .7304 -.81677 -.75636 983.22 834.542)"/><rect x="846" y="133" width="7" height="10" fill="#98ACF8" rx="0" transform="matrix(1.12915 .41919 .15054 .94151 -10.037 -136.225)"/><rect x="1446" y="811" width="5" height="10" fill="#B088F9" rx="0" transform="matrix(-.28821 .97542 -.94798 -.26136 2703.89 -587.195)"/><rect x="1562" y="794" width="7" height="20" fill="#bedcfa" rx="0" transform="matrix(-.25378 .86721 -1.0066 -.50069 2976.655 -69.027)"/><rect x="1442" y="171" width="7" height="10" fill="#DA9FF9" rx="0" transform="matrix(-.03393 .90093 -1.09038 -.52015 1822.774 -620.251)"/><rect x="862" y="384" width="6" height="16" fill="#DA9FF9" rx="0" transform="matrix(1.05116 .46249 -.0992 .90768 103.513 -195.725)"/><rect x="1960" y="808" width="6" height="7" fill="#B088F9" rx="0" transform="matrix(.9199 .6165 -.44462 .7891 707.919 -1141.927)"/><rect x="499" y="80" width="8" height="22" fill="#B088F9" rx="0" transform="matrix(.727 .92502 -.67808 .51274 194.413 -247.746)"/><rect x="1550" y="217" width="7" height="15" fill="#bedcfa" rx="0" transform="matrix(.94552 .34207 -.32557 .93984 157.727 -490.786)"/><rect x="322" y="310" width="8" height="15" fill="#bedcfa" rx="0" transform="matrix(-.99072 .10454 -.13923 -.99467 698.822 604.918)"/><rect x="1876" y="819" width="7" height="14" fill="#DA9FF9" rx="0" transform="matrix(-.8651 .51574 -.49917 -.85834 3853.128 664.15)"/><rect x="1929" y="449" width="5" height="14" fill="#DA9FF9" rx="0" transform="matrix(.14354 .99924 -1.00828 -.05237 2203.74 -1517.598)"/><rect x="706" y="470" width="9" height="13" fill="#98ACF8" rx="0" transform="matrix(-.87358 .3102 -.53515 -.95469 1720.804 648.854)"/><rect x="507" y="94" width="9" height="17" fill="#bedcfa" rx="0" transform="matrix(.37061 .9406 -.9209 .36106 398.95 -352.817)"/><rect x="677" y="69" width="9" height="22" fill="#98ACF8" rx="0" transform="matrix(.32889 1.0457 -.9563 0 543.937 -424.283)"/><rect x="1412" y="373" width="8" height="16" fill="#DA9FF9" rx="0" transform="matrix(-.984 .05262 -.22665 -1.00413 2932.759 837.885)"/><rect x="478" y="365" width="8" height="18" fill="#DA9FF9" rx="0" transform="matrix(-.57388 .8388 -.8195 -.54472 1045.061 181.839)"/><rect x="1131" y="779" width="8" height="22" fill="#DA9FF9" rx="0" transform="matrix(-.98978 -.28823 .01765 -1.00518 2204.755 2258.242)"/><rect x="1312" y="302" width="5" height="8" fill="#DA9FF9" rx="0" transform="matrix(.93138 .77786 -.50405 .6527 358.744 -684.445)"/><rect x="1932" y="66" width="5" height="6" fill="#DA9FF9" rx="0" transform="matrix(.7461 .74416 -.672 .67005 546.453 -1315.437)"/><rect x="1228" y="549" width="7" height="9" fill="#bedcfa" rx="0" transform="matrix(-.9915 .01758 -.06873 -1.00736 2441.294 1240.627)"/><rect x="1592" y="876" width="8" height="8" fill="#bedcfa" rx="0" transform="matrix(.9826 .12375 -.07814 1.00786 223.757 -485.837)"/><rect x="572" y="503" width="9" height="19" fill="#bedcfa" rx="0" transform="matrix(.85626 .47062 -.51447 .8851 354.772 -252.74)"/><rect x="910" y="507" width="6" height="14" fill="#98ACF8" rx="0" transform="matrix(.19127 .99255 -.98402 .12187 1280.097 -454.835)"/><rect x="790" y="299" width="5" height="14" fill="#98ACF8" rx="0" transform="matrix(.26727 .98083 -.94793 .26281 800.157 -411.986)"/><rect x="1417" y="809" width="8" height="16" fill="#DA9FF9" rx="0" transform="matrix(.14075 1.0042 -1.02831 -.23184 2204.94 -66.26)"/><rect x="169" y="588" width="5" height="8" fill="#B088F9" rx="0" transform="matrix(-.73878 .84183 -.68958 -.56782 676.992 753.536)"/><rect x="434" y="818" width="7" height="20" fill="#bedcfa" rx="0" transform="matrix(.9934 -.05246 .10546 1.00107 13.47 -8.524)"/><rect x="268" y="558" width="5" height="10" fill="#B088F9" rx="0" transform="matrix(.29949 1.0249 -.9914 -.05371 824.443 378.455)"/><rect x="168" y="654" width="5" height="13" fill="#B088F9" rx="0" transform="matrix(.82954 .58779 -.55953 .80902 421.7 25.927)"/><rect x="1030" y="64" width="6" height="12" fill="#bedcfa" rx="0" transform="matrix(.84647 .65967 -.54215 .75887 186.926 -773.135)"/><rect x="840" y="394" width="7" height="18" fill="#98ACF8" rx="0" transform="matrix(.6435 .90003 -.79722 .43897 700.833 -488.873)"/><rect x="1219" y="266" width="6" height="17" fill="#DA9FF9" rx="0" transform="matrix(-.01788 .98784 -1.00948 -.15646 1557.277 -868.361)"/><rect x="663" y="34" width="5" height="5" fill="#98ACF8" rx="0" transform="matrix(-.41301 .9703 -.92764 -.24192 967.782 -600.402)"/><rect x="1555" y="315" width="8" height="8" fill="#B088F9" rx="0" transform="matrix(.54474 .93198 -.84176 .3956 1001.69 -1507.074)"/><rect x="1380" y="299" width="9" height="18" fill="#B088F9" rx="0" transform="matrix(-.9577 .05418 -.18208 -1.03386 2683.16 922.389)"/><rect x="1438" y="381" width="6" height="6" fill="#DA9FF9" rx="0" transform="matrix(-.11452 .89934 -1.05607 -.43864 2152.677 -693.194)"/><rect x="1523" y="886" width="9" height="17" fill="#98ACF8" rx="0" transform="matrix(-.36723 .85563 -.90192 -.62165 2770.934 669.55)"/><rect x="438" y="272" width="6" height="10" fill="#B088F9" rx="0" transform="matrix(.22867 1.0069 -1.00114 -.03516 664.013 -103.153)"/><rect x="1799" y="889" width="8" height="18" fill="#98ACF8" rx="0" transform="matrix(.98255 .05285 -.1732 1.00844 198.254 -356.267)"/><rect x="1932" y="156" width="7" height="12" fill="#DA9FF9" rx="0" transform="matrix(-.61233 .52468 -.88685 -.87321 3398.524 -335.83)"/><rect x="983" y="730" width="7" height="18" fill="#DA9FF9" rx="0" transform="matrix(-.43754 .89318 -.89665 -.4551 2038.417 263.177)"/><rect x="183" y="319" width="5" height="10" fill="#98ACF8" rx="0" transform="matrix(.71967 .9599 -.75102 .38782 341.215 69.99)"/><rect x="890" y="794" width="7" height="12" fill="#DA9FF9" rx="0" transform="matrix(-1.00203 -.0175 -.24716 -1.00229 2154.192 1679.943)"/><rect x="1716" y="180" width="7" height="9" fill="#B088F9" rx="0" transform="matrix(-.9785 -.03582 -.10107 -1.02568 3369.795 832.304)"/><rect x="1275" y="594" width="7" height="11" fill="#B088F9" rx="0" transform="matrix(.46026 .96441 -.86938 .35102 1132.973 -548.768)"/><rect x="464" y="416" width="5" height="6" fill="#B088F9" rx="0" transform="matrix(1.00597 .37604 -.16944 .93073 183.832 -187.209)"/><rect x="689" y="353" width="8" height="12" fill="#DA9FF9" rx="0" transform="matrix(-.67569 .41919 -.86794 -.94151 1615.334 579.29)"/><rect x="38" y="285" width="5" height="8" fill="#DA9FF9" rx="0" transform="matrix(.4063 .92275 -.91125 .39169 312.433 135.6)"/><rect x="1766" y="598" width="5" height="5" fill="#B088F9" rx="0" transform="matrix(.8502 .5339 -.51242 .85442 486.705 -639.633)"/><rect x="415" y="350" width="6" height="17" fill="#B088F9" rx="0" transform="matrix(-.40813 .86655 -.91836 -.5003 966.165 161.043)"/><rect x="14" y="376" width="7" height="12" fill="#DA9FF9" rx="0" transform="matrix(-.8605 .29309 -.59738 -.95864 356.308 744.295)"/><rect x="518" y="236" width="7" height="9" fill="#DA9FF9" rx="0" transform="matrix(-.98818 .19154 -.13715 -.98538 1029.609 423.221)"/><rect x="948" y="710" width="8" height="10" fill="#bedcfa" rx="0" transform="matrix(-.82227 .73236 -.59868 -.68293 2069.377 456.202)"/><rect x="1810" y="272" width="9" height="26" fill="#bedcfa" rx="0" transform="matrix(-.85241 .26076 -.65366 -.97318 3693.101 311.995)"/><rect x="468" y="677" width="7" height="7" fill="#98ACF8" rx="0" transform="matrix(-.189 .99023 -.97654 -.1746 1280.35 282.867)"/><rect x="983" y="869" width="7" height="13" fill="#98ACF8" rx="0" transform="matrix(.07878 .93773 -1.09984 -.39804 2197.986 490.67)"/><rect x="1592" y="377" width="5" height="8" fill="#98ACF8" rx="0" transform="matrix(.4617 .92764 -.87245 .41301 1121.136 -974.323)"/><rect x="1890" y="371" width="5" height="8" fill="#98ACF8" rx="0" transform="matrix(-.7261 .78813 -.70154 -.61576 3487.716 -918.663)"/><rect x="1919" y="625" width="7" height="11" fill="#98ACF8" rx="0" transform="matrix(-.00001 1.00046 -.99954 -.01746 2540.555 -1214.733)"/><rect x="1008" y="358" width="8" height="14" fill="#DA9FF9" rx="0" transform="matrix(.48863 .92402 -.87482 .39222 890.554 -801.81)"/><rect x="261" y="130" width="5" height="11" fill="#bedcfa" rx="0" transform="matrix(.67603 .92252 -.783 .41073 218.788 -126.207)"/><rect x="259" y="740" width="7" height="16" fill="#98ACF8" rx="0" transform="matrix(.96713 .12375 -.2042 1.00786 222.758 -84.648)"/><rect x="1650" y="947" width="7" height="8" fill="#98ACF8" rx="0" transform="matrix(-1.00247 .03492 .07078 -1 3102.002 1902)"/><rect x="431" y="507" width="6" height="8" fill="#B088F9" rx="0" transform="matrix(.58952 .90998 -.78548 .48384 525.354 -22.966)"/><rect x="507" y="555" width="5" height="7" fill="#98ACF8" rx="0" transform="matrix(-.64891 .6345 -.74545 -.81213 1220.528 815.827)"/><rect x="838" y="854" width="9" height="16" fill="#B088F9" rx="0" transform="matrix(-.1575 .92502 -.99376 -.51274 1851.924 814.756)"/><rect x="158" y="93" width="6" height="11" fill="#bedcfa" rx="0" transform="matrix(.33879 .9582 -.93355 .31134 188.063 -66.668)"/><rect x="1565" y="124" width="8" height="21" fill="#DA9FF9" rx="0" transform="matrix(-.66364 .65482 -.73625 -.78038 2686.241 -482.966)"/><rect x="449" y="531" width="9" height="25" fill="#DA9FF9" rx="0" transform="matrix(-.86933 .42262 -.50191 -.9063 1168.08 844.42)"/><rect x="676" y="475" width="9" height="20" fill="#DA9FF9" rx="0" transform="matrix(.63715 1.02023 -.82131 .25437 719.471 -111.528)"/><rect x="1822" y="884" width="5" height="5" fill="#DA9FF9" rx="0" transform="matrix(.9004 .5339 -.43206 .85442 717.678 -1069.06)"/><rect x="1256" y="379" width="8" height="23" fill="#bedcfa" rx="0" transform="matrix(-.90768 .55953 -.44151 -.82954 2499.471 53.424)"/><rect x="686" y="588" width="6" height="8" fill="#DA9FF9" rx="0" transform="matrix(.50622 1.01073 -.84423 .28982 797.237 -52.098)"/><rect x="570" y="24" width="6" height="6" fill="#B088F9" rx="0" transform="matrix(.3111 .88552 -.95683 .49085 422.802 -584.411)"/><rect x="623" y="338" width="9" height="21" fill="#B088F9" rx="0" transform="matrix(.93793 .68408 -.42015 .75975 236.02 -212.152)"/><rect x="765" y="112" width="5" height="10" fill="#B088F9" rx="0" transform="matrix(-.77302 .82228 -.67485 -.57577 1431.858 -513.883)"/><rect x="376" y="400" width="7" height="10" fill="#B088F9" rx="0" transform="matrix(-.38162 .8272 -.94168 -.57921 945.805 378.993)"/><rect x="1175" y="417" width="9" height="12" fill="#B088F9" rx="0" transform="matrix(.93946 .8215 -.53473 .59685 466.67 -590.447)"/><rect x="433" y="877" width="9" height="25" fill="#B088F9" rx="0" transform="matrix(-.88618 .1769 -.62719 -1.00324 1644.213 1789.53)"/><rect x="1251" y="167" width="9" height="22" fill="#DA9FF9" rx="0" transform="matrix(.2937 .92065 -.96153 .3908 1033.37 -1025.516)"/><rect x="1617" y="242" width="6" height="11" fill="#bedcfa" rx="0" transform="matrix(-.18487 .98395 -.97364 -.22716 2163.962 -1517.946)"/><rect x="838" y="452" width="8" height="8" fill="#98ACF8" rx="0" transform="matrix(-.99677 .01745 -.19375 -.99985 1850.037 897.236)"/><rect x="1333" y="263" width="7" height="17" fill="#DA9FF9" rx="0" transform="matrix(-.71112 .66618 -.68305 -.76635 2410.084 -175.124)"/><rect x="1188" y="613" width="8" height="22" fill="#bedcfa" rx="0" transform="matrix(-.84072 .48481 -.54597 -.87462 2578.455 591.87)"/><rect x="1530" y="509" width="9" height="14" fill="#98ACF8" rx="0" transform="matrix(-.10438 .99146 -.99208 -.15703 2183.876 -790.117)"/><rect x="1591" y="844" width="7" height="14" fill="#bedcfa" rx="0" transform="matrix(.4633 .98776 -.91391 .20995 1765.51 -678.563)"/><rect x="464" y="879" width="7" height="16" fill="#B088F9" rx="0" transform="matrix(.10241 .95073 -1.08709 -.32736 1706.21 782.041)"/><rect x="1303" y="505" width="6" height="17" fill="#bedcfa" rx="0" transform="matrix(1.01061 .05234 .17927 .99878 16.43 -90.532)"/><rect x="1190" y="512" width="9" height="11" fill="#bedcfa" rx="0" transform="matrix(.63798 .65766 -.78662 .75655 793.894 -743.12)"/><rect x="1601" y="205" width="7" height="12" fill="#DA9FF9" rx="0" transform="matrix(-.85883 .32314 -.45147 -.99451 2991.61 392.914)"/><rect x="1351" y="719" width="9" height="19" fill="#bedcfa" rx="0" transform="matrix(1.0561 .62171 -.25671 .79575 391.937 -503.435)"/><rect x="526" y="445" width="5" height="12" fill="#98ACF8" rx="0" transform="matrix(-.53837 .73205 -.82766 -.73205 1155.243 535.877)"/><rect x="1427" y="320" width="6" height="12" fill="#B088F9" rx="0" transform="matrix(-.99437 .10454 -.10452 -.99467 2891.276 475.804)"/><rect x="1757" y="522" width="7" height="10" fill="#DA9FF9" rx="0" transform="matrix(1.01491 .52573 -.14424 .9106 126.614 -306.411)"/><rect x="628" y="639" width="5" height="10" fill="#98ACF8" rx="0" transform="matrix(-.22778 .99497 -.97709 -.12217 1282.029 139.436)"/><rect x="1649" y="896" width="7" height="18" fill="#DA9FF9" rx="0" transform="matrix(-.28666 .97797 -.94572 -.26205 3061.062 -735.668)"/><rect x="1808" y="433" width="5" height="9" fill="#bedcfa" rx="0" transform="matrix(.68392 .5886 -.75763 .81013 849.458 -1077.46)"/><rect x="1534" y="752" width="5" height="9" fill="#B088F9" rx="0" transform="matrix(.80987 .64367 -.58843 .7671 751.888 -732.282)"/><rect x="1554" y="173" width="8" height="18" fill="#B088F9" rx="0" transform="matrix(.0505 .99832 -.99637 .10493 1615.92 -1256.173)"/><rect x="366" y="654" width="9" height="13" fill="#DA9FF9" rx="0" transform="matrix(.8713 .37604 -.50277 .93073 346.845 -125.98)"/><rect x="310" y="645" width="6" height="8" fill="#B088F9" rx="0" transform="matrix(-.8734 .53194 -.48217 -.85129 804.244 1062.371)"/><rect x="1940" y="409" width="6" height="11" fill="#B088F9" rx="0" transform="matrix(-.8571 .25046 -.55505 -1.00452 3903.817 864.865)"/><rect x="1036" y="342" width="8" height="16" fill="#bedcfa" rx="0" transform="matrix(.99802 .05237 -.05235 .99924 6.891 -17.878)"/><rect x="342" y="632" width="8" height="14" fill="#DA9FF9" rx="0" transform="matrix(-.39022 .9363 -.91038 -.37829 953.839 605.395)"/><rect x="646" y="327" width="7" height="13" fill="#bedcfa" rx="0" transform="matrix(.15641 .98496 -.9877 .17367 865.263 -352.813)"/><rect x="957" y="352" width="5" height="5" fill="#DA9FF9" rx="0" transform="matrix(1.0078 .0872 .05243 .9968 14.714 -49.037)"/><rect x="356" y="962" width="5" height="13" fill="#98ACF8" rx="0" transform="matrix(-.15595 .8613 -1.05183 -.6031 1604.947 1360.301)"/><rect x="907" y="673" width="6" height="15" fill="#bedcfa" rx="0" transform="matrix(.94895 .51274 -.23833 .92502 139.141 -102.233)"/><rect x="1955" y="631" width="5" height="7" fill="#98ACF8" rx="0" transform="matrix(.8389 1.0262 -.7653 .25586 1176.154 -862.619)"/><rect x="1194" y="480" width="9" height="17" fill="#DA9FF9" rx="0" transform="matrix(.64723 .85012 -.77187 .53121 839.872 -706.058)"/><rect x="142" y="752" width="7" height="11" fill="#DA9FF9" rx="0" transform="matrix(-.22646 .9875 -.95197 -.2646 760.549 845.18)"/><rect x="35" y="556" width="6" height="8" fill="#B088F9" rx="0" transform="matrix(-.7881 .34333 -.74742 -.94328 680.469 1078.516)"/><rect x="1098" y="567" width="7" height="14" fill="#B088F9" rx="0" transform="matrix(-.92639 .10686 -.54375 -1.01674 2620.597 1274.03)"/><rect x="1420" y="369" width="9" height="26" fill="#DA9FF9" rx="0" transform="matrix(-.56251 .7098 -.84632 -.7098 2622.891 -482.602)"/><rect x="355" y="590" width="5" height="11" fill="#B088F9" rx="0" transform="matrix(.54887 .90755 -.84592 .4232 718.764 37.772)"/><rect x="278" y="206" width="8" height="13" fill="#bedcfa" rx="0" transform="matrix(.98378 .39288 -.22765 .92558 69.882 -65.338)"/><rect x="1729" y="134" width="9" height="9" fill="#DA9FF9" rx="0" transform="matrix(1.02172 .24192 -.03568 .9703 -3.267 -415.258)"/><rect x="1646" y="690" width="5" height="10" fill="#DA9FF9" rx="0" transform="matrix(.74887 .75655 -.6708 .65766 992.874 -1124.526)"/><rect x="1659" y="394" width="6" height="13" fill="#98ACF8" rx="0" transform="matrix(.32307 .9563 -.94073 .31072 1451.495 -1138.622)"/><rect x="804" y="105" width="7" height="18" fill="#DA9FF9" rx="0" transform="matrix(.66635 .62942 -.7659 .77726 340.907 -496.957)"/><rect x="1812" y="270" width="7" height="9" fill="#98ACF8" rx="0" transform="matrix(.34314 .90099 -.94253 .43944 1446.095 -1608.824)"/><rect x="1277" y="442" width="6" height="12" fill="#DA9FF9" rx="0" transform="matrix(.32492 1 -1.00567 -.01746 1467.467 -801.838)"/><rect x="1843" y="938" width="7" height="15" fill="#bedcfa" rx="0" transform="matrix(-.63072 .81928 -.77895 -.57366 3699.765 -57.126)"/><rect x="465" y="791" width="6" height="14" fill="#B088F9" rx="0" transform="matrix(-.11758 .8407 -1.10716 -.58866 1683.544 982.353)"/><rect x="1758" y="601" width="8" height="21" fill="#B088F9" rx="0" transform="matrix(-.93023 .2105 -.37412 -.99034 3737.855 567.113)"/><rect x="1085" y="254" width="8" height="14" fill="#B088F9" rx="0" transform="matrix(.42375 .93415 -.90783 .35859 887.914 -887.909)"/><rect x="66" y="847" width="8" height="17" fill="#bedcfa" rx="0" transform="matrix(1.0119 .22998 .03475 .99614 15.05 2.084)"/><rect x="1960" y="95" width="6" height="7" fill="#DA9FF9" rx="0" transform="matrix(-.29003 .93064 -.9454 -.41435 2591.877 -1305.972)"/><rect x="1986" y="944" width="5" height="5" fill="#B088F9" rx="0" transform="matrix(1.01974 .36637 -.07293 .95444 149.56 -262.741)"/><rect x="218" y="736" width="9" height="12" fill="#B088F9" rx="0" transform="matrix(.74314 .78683 -.66913 .63716 553.645 129.394)"/><rect x="447" y="981" width="7" height="13" fill="#bedcfa" rx="0" transform="matrix(-.33967 .81928 -.98275 -.57366 1840.693 1192.772)"/><rect x="675" y="164" width="8" height="16" fill="#B088F9" rx="0" transform="matrix(.3355 1.05183 -.98599 -.11055 663.435 -289.377)"/><rect x="21" y="857" width="8" height="8" fill="#DA9FF9" rx="0" transform="matrix(-1.03177 .27907 .01491 -.97324 -82.494 1688.027)"/><rect x="262" y="953" width="6" height="8" fill="#DA9FF9" rx="0" transform="matrix(-.34002 .88632 -.94747 -.47126 1477.422 1149.941)"/><rect x="530" y="380" width="8" height="13" fill="#bedcfa" rx="0" transform="matrix(-.19928 .90223 -1.01117 -.44005 1107.622 121.507)"/><rect x="974" y="549" width="7" height="8" fill="#DA9FF9" rx="0" transform="matrix(-.9588 .14054 -.2931 -1 2088.866 1106)"/><rect x="1624" y="618" width="7" height="17" fill="#B088F9" rx="0" transform="matrix(.539 .9204 -.8465 .4098 1394.946 -1328.027)"/><rect x="552" y="419" width="9" height="9" fill="#98ACF8" rx="0" transform="matrix(-.99306 .50771 -.2496 -.87939 1180.64 415.251)"/><rect x="357" y="607" width="7" height="11" fill="#DA9FF9" rx="0" transform="matrix(.2659 1.05698 -.93681 .03691 773.994 332.982)"/><rect x="904" y="335" width="5" height="5" fill="#B088F9" rx="0" transform="matrix(-.78035 .31848 -.73826 -.98017 1982.833 605.624)"/><rect x="164" y="276" width="7" height="9" fill="#98ACF8" rx="0" transform="matrix(-.81343 .50375 -.5762 -.87253 520.622 420.3)"/><rect x="74" y="899" width="5" height="7" fill="#DA9FF9" rx="0" transform="matrix(-.60156 .72265 -.76085 -.74833 679.27 1544.52)"/><rect x="325" y="856" width="9" height="12" fill="#DA9FF9" rx="0" transform="matrix(-.6693 .69561 -.7445 -.72033 1295.517 1236.45)"/><rect x="1601" y="130" width="6" height="7" fill="#bedcfa" rx="0" transform="matrix(.6433 .92275 -.81065 .39169 687.72 -1511.048)"/><rect x="1303" y="597" width="9" height="16" fill="#98ACF8" rx="0" transform="matrix(-.65139 .63186 -.7489 -.80874 2580.605 569.995)"/><rect x="771" y="80" width="8" height="18" fill="#DA9FF9" rx="0" transform="matrix(-.7799 .473 -.6474 -.88958 1435.037 -293.558)"/><rect x="558" y="747" width="9" height="26" fill="#B088F9" rx="0" transform="matrix(1.0192 .53 -.25572 .84818 418.905 -172.921)"/><rect x="1631" y="624" width="6" height="10" fill="#B088F9" rx="0" transform="matrix(1.06134 .42423 -.08115 .90977 172.168 -493.485)"/><rect x="262" y="791" width="5" height="7" fill="#DA9FF9" rx="0" transform="matrix(.72333 .90223 -.75557 .44005 862.25 229.385)"/><rect x="1657" y="30" width="6" height="8" fill="#B088F9" rx="0" transform="matrix(1.00504 .5189 -.25446 .8636 42.215 -652.924)"/><rect x="1715" y="304" width="9" height="13" fill="#bedcfa" rx="0" transform="matrix(.80936 .72209 -.60329 .69731 555.04 -1298.082)"/><rect x="201" y="591" width="7" height="17" fill="#98ACF8" rx="0" transform="matrix(-.32557 .90554 -.94552 -.44166 837.917 704.203)"/><rect x="114" y="370" width="7" height="18" fill="#DA9FF9" rx="0" transform="matrix(.89486 .53513 -.43664 .85638 164.03 8.067)"/><rect x="469" y="441" width="9" height="12" fill="#DA9FF9" rx="0" transform="matrix(.12378 .96258 -1.00338 .27602 819.028 -156.976)"/><rect x="582" y="71" width="7" height="16" fill="#98ACF8" rx="0" transform="matrix(.7126 .82856 -.65017 .64734 181.802 -267.024)"/><rect x="1224" y="93" width="6" height="16" fill="#bedcfa" rx="0" transform="matrix(.15662 .9922 -.98024 .17495 1128.612 -1284.76)"/><rect x="1482" y="133" width="7" height="12" fill="#98ACF8" rx="0" transform="matrix(-.6711 .811 -.74547 -.58922 2584.825 -1087.704)"/><rect x="1560" y="571" width="5" height="13" fill="#98ACF8" rx="0" transform="matrix(.51583 1.0513 -.9602 -.01835 1541.693 -546.875)"/><rect x="1559" y="769" width="6" height="13" fill="#98ACF8" rx="0" transform="matrix(-.11914 1 -.98537 -.12278 2583.919 -883.07)"/><rect x="280" y="213" width="8" height="20" fill="#DA9FF9" rx="0" transform="matrix(-.48703 .92107 -.87897 -.39097 603.425 38.686)"/><rect x="326" y="843" width="9" height="26" fill="#DA9FF9" rx="0" transform="matrix(.65002 1.03996 -.89325 .1093 1118.91 519.771)"/><rect x="822" y="930" width="7" height="11" fill="#98ACF8" rx="0" transform="matrix(-.97573 .14022 -.18905 -.9977 1735.32 1854.461)"/><rect x="1953" y="409" width="6" height="9" fill="#DA9FF9" rx="0" transform="matrix(-.96848 .39073 -.2777 -.9205 3914.409 29.859)"/><rect x="1986" y="168" width="5" height="6" fill="#98ACF8" rx="0" transform="matrix(-.9877 -.05418 -.3902 -1.03386 4143.372 988.348)"/><rect x="1190" y="657" width="8" height="20" fill="#bedcfa" rx="0" transform="matrix(.99343 .12254 -.06976 .99801 12.844 -19.494)"/><rect x="1848" y="428" width="8" height="17" fill="#DA9FF9" rx="0" transform="matrix(-.55149 .7436 -.84825 -.66954 3305.15 -583.716)"/><rect x="1063" y="711" width="6" height="13" fill="#98ACF8" rx="0" transform="matrix(1.0281 .38446 -.05642 .95157 111.81 -128.983)"/><rect x="1644" y="350" width="5" height="10" fill="#DA9FF9" rx="0" transform="matrix(.11903 .9573 -1.08558 -.32963 2024.164 -843.405)"/><rect x="1255" y="986" width="6" height="16" fill="#B088F9" rx="0" transform="matrix(.68928 .86073 -.71418 .55897 1055.922 -353.979)"/><rect x="71" y="541" width="8" height="16" fill="#DA9FF9" rx="0" transform="matrix(.43174 .9601 -.8929 .3306 686.449 282.273)"/><rect x="148" y="718" width="9" height="23" fill="#B088F9" rx="0" transform="matrix(.60324 .83918 -.79989 .54497 720.138 198.643)"/><rect x="725" y="40" width="7" height="11" fill="#98ACF8" rx="0" transform="matrix(.96775 .37928 -.24134 .93874 31.667 -158.132)"/><rect x="1449" y="415" width="9" height="13" fill="#98ACF8" rx="0" transform="matrix(.96614 .27716 -.23877 .96656 187.63 -541.518)"/><rect x="1886" y="401" width="5" height="8" fill="#B088F9" rx="0" transform="matrix(.96534 .40898 -.27694 .91858 198.693 -540.888)"/><rect x="1599" y="681" width="9" height="21" fill="#DA9FF9" rx="0" transform="matrix(-.52455 .7718 -.85553 -.64761 3168.746 -295.136)"/><rect x="1392" y="649" width="6" height="17" fill="#98ACF8" rx="0" transform="matrix(-.68721 .56966 -.7366 -.84455 2870.407 689.28)"/><rect x="439" y="262" width="8" height="22" fill="#B088F9" rx="0" transform="matrix(-.94753 .40773 -.32443 -.91578 903.177 373.36)"/><rect x="1376" y="454" width="5" height="9" fill="#bedcfa" rx="0" transform="matrix(.17566 1.01156 -1.00394 -.0885 1658.043 -652.295)"/><rect x="740" y="189" width="7" height="18" fill="#98ACF8" rx="0" transform="matrix(.78565 .87454 -.68987 .50491 354.758 -447.699)"/><rect x="345" y="523" width="6" height="14" fill="#DA9FF9" rx="0" transform="matrix(.84707 .65616 -.54958 .75482 427.478 -104.475)"/><rect x="1741" y="737" width="5" height="12" fill="#DA9FF9" rx="0" transform="matrix(1.0457 .20791 .1099 .97815 80.072 -346.258)"/><rect x="1544" y="902" width="7" height="10" fill="#B088F9" rx="0" transform="matrix(-.50073 .59685 -.98626 -.8215 3600.278 1001.334)"/><rect x="1831" y="694" width="7" height="19" fill="#98ACF8" rx="0" transform="matrix(-.71814 .6597 -.66 -.7862 3417.513 469.904)"/><rect x="251" y="314" width="5" height="7" fill="#B088F9" rx="0" transform="matrix(.8086 .90768 -.6897 .46249 345.463 -10.162)"/><rect x="543" y="220" width="6" height="13" fill="#98ACF8" rx="0" transform="matrix(.63074 .8636 -.77895 .5189 383.175 -295.52)"/><rect x="1180" y="275" width="6" height="6" fill="#bedcfa" rx="0" transform="matrix(1.16766 .67983 -.0794 .81018 59.709 -344.125)"/><rect x="1335" y="923" width="6" height="7" fill="#B088F9" rx="0" transform="matrix(.99497 .06977 -.10462 .99772 53.88 -67.877)"/><rect x="425" y="543" width="7" height="8" fill="#98ACF8" rx="0" transform="matrix(.01633 .984 -1.02063 -.26366 1034.93 352.87)"/><rect x="1661" y="850" width="6" height="11" fill="#B088F9" rx="0" transform="matrix(-.95948 .32681 -.27335 -.94913 3353.722 1269.247)"/><rect x="705" y="179" width="5" height="12" fill="#DA9FF9" rx="0" transform="matrix(-.11137 .91853 -1.02948 -.4884 1017.515 -171.635)"/><rect x="214" y="541" width="7" height="16" fill="#bedcfa" rx="0" transform="matrix(.28946 .97318 -.95 .26076 625.722 220.88)"/><rect x="229" y="457" width="6" height="9" fill="#bedcfa" rx="0" transform="matrix(-1.04202 -.1985 -.32292 -1.02119 744.679 1045.354)"/><rect x="1364" y="686" width="9" height="9" fill="#bedcfa" rx="0" transform="matrix(-.79864 .6297 -.60182 -.77762 2876.986 317.907)"/><rect x="915" y="448" width="9" height="17" fill="#98ACF8" rx="0" transform="matrix(-.99773 .29688 -.10492 -.97106 1879.669 464.672)"/><rect x="567" y="766" width="5" height="8" fill="#bedcfa" rx="0" transform="matrix(-.65923 .62304 -.7302 -.8268 1442.667 1204.415)"/><rect x="1601" y="939" width="7" height="16" fill="#bedcfa" rx="0" transform="matrix(-1.014 .0872 .12343 -.9968 2957.486 1695.014)"/><rect x="1728" y="573" width="7" height="18" fill="#bedcfa" rx="0" transform="matrix(.99955 -.05262 -.06986 1.00413 34.46 -93.273)"/><rect x="1080" y="867" width="9" height="15" fill="#bedcfa" rx="0" transform="matrix(1.0588 .50191 -.08226 .90547 213.611 -171.069)"/><rect x="1312" y="845" width="6" height="16" fill="#DA9FF9" rx="0" transform="matrix(.29563 .99042 -.96813 .1392 1875.167 -545.18)"/><rect x="1779" y="377" width="5" height="6" fill="#B088F9" rx="0" transform="matrix(-.67154 .37902 -.88897 -.98737 3563.352 693.402)"/><rect x="141" y="919" width="6" height="14" fill="#B088F9" rx="0" transform="rotate(57 144 926)"/><rect x="378" y="490" width="8" height="22" fill="#B088F9" rx="0" transform="matrix(.75297 .96823 -.80261 .29602 678.919 43.337)"/><rect x="767" y="111" width="5" height="6" fill="#DA9FF9" rx="0" transform="matrix(.75704 .9406 -.77256 .36106 338.77 -556.463)"/><rect x="293" y="912" width="5" height="11" fill="#B088F9" rx="0" transform="matrix(.12278 1 -1.02387 -.19438 1318.323 857.783)"/><rect x="1510" y="948" width="6" height="17" fill="#98ACF8" rx="0" transform="matrix(.26743 1.00261 -1.03498 -.1409 2396.564 -186.038)"/><rect x="452" y="837" width="7" height="9" fill="#98ACF8" rx="0" transform="matrix(-.2073 .94454 -.97497 -.38162 1354.123 820.935)"/><rect x="1278" y="853" width="8" height="21" fill="#DA9FF9" rx="0" transform="matrix(.43687 1.03819 -1.04813 -.2018 2001.18 148.227)"/><rect x="1549" y="430" width="9" height="18" fill="#B088F9" rx="0" transform="matrix(-.85826 .65616 -.5367 -.75482 3064.536 -276.091)"/><rect x="1187" y="127" width="6" height="8" fill="#98ACF8" rx="0" transform="matrix(.98238 .13926 -.19094 .99087 44.424 -206.077)"/><rect x="1674" y="95" width="7" height="10" fill="#B088F9" rx="0" transform="matrix(.95173 .37928 -.28098 .93874 67.758 -895.8)"/><rect x="915" y="46" width="9" height="9" fill="#98ACF8" rx="0" transform="matrix(-.45758 .60578 -1.02096 -.83378 1477.336 -235.151)"/><rect x="1079" y="344" width="6" height="14" fill="#DA9FF9" rx="0" transform="matrix(.34695 1.01985 -.95627 .07131 1082.877 -547.523)"/><rect x="1308" y="369" width="8" height="22" fill="#98ACF8" rx="0" transform="matrix(-.4992 .70766 -.89617 -.7328 2374.238 -14.958)"/><rect x="35" y="444" width="5" height="14" fill="#98ACF8" rx="0" transform="matrix(.98645 -.01772 -.08544 1.01527 70.116 -12.835)"/><rect x="871" y="812" width="7" height="14" fill="#98ACF8" rx="0" transform="matrix(.24235 .9512 -.97256 .30906 1386.102 -250.685)"/><rect x="902" y="204" width="7" height="18" fill="#bedcfa" rx="0" transform="matrix(1.0106 -.10614 -.19375 1.00986 25.125 -65.654)"/><rect x="592" y="109" width="5" height="13" fill="#bedcfa" rx="0" transform="matrix(.8988 .50122 -.43837 .86814 110.799 -241.175)"/><rect x="154" y="599" width="6" height="13" fill="#bedcfa" rx="0" transform="matrix(-1.00185 .29255 -.14133 -.95689 326.191 1133.483)"/><rect x="1881" y="173" width="5" height="13" fill="#DA9FF9" rx="0" transform="matrix(1.05855 .55719 -.1007 .8917 33.162 -418.04)"/><rect x="634" y="855" width="6" height="7" fill="#DA9FF9" rx="0" transform="matrix(.51378 .96828 -.89509 .25945 1253.685 63.507)"/><rect x="566" y="501" width="6" height="7" fill="#DA9FF9" rx="0" transform="matrix(-.79309 .31592 -.72447 -.9723 1530.16 936.213)"/><rect x="1747" y="159" width="5" height="10" fill="#bedcfa" rx="0" transform="matrix(.7376 .6355 -.6627 .78478 560.591 -1322.397)"/><rect x="625" y="491" width="6" height="15" fill="#98ACF8" rx="0" transform="matrix(.17443 1.04314 -.94644 .07294 868.504 -.958)"/><rect x="12" y="357" width="8" height="12" fill="#DA9FF9" rx="0" transform="matrix(1.12966 .54154 .03349 .90128 91.35 32.37)"/><rect x="161" y="382" width="8" height="8" fill="#B088F9" rx="0" transform="matrix(.87634 .4073 -.48693 .9148 152.897 -25.669)"/><rect x="1987" y="26" width="7" height="10" fill="#B088F9" rx="0" transform="matrix(-.04077 .94199 -1.04675 -.34286 2146.542 -1694.208)"/><rect x="415" y="515" width="7" height="13" fill="#98ACF8" rx="0" transform="matrix(.839 .47062 -.54692 .8851 265.364 -107.77)"/><rect x="1877" y="216" width="8" height="19" fill="#B088F9" rx="0" transform="matrix(.58176 .77786 -.79742 .6527 955.376 -1716.514)"/><rect x="1032" y="83" width="7" height="13" fill="#DA9FF9" rx="0" transform="matrix(.15275 .95157 -1.1126 -.38446 1083.662 -622.38)"/><rect x="910" y="481" width="8" height="8" fill="#98ACF8" rx="0" transform="matrix(.99863 0 .0884 1.00137 19.81 -48.566)"/><rect x="1672" y="33" width="8" height="23" fill="#DA9FF9" rx="0" transform="matrix(.9881 .2443 -.1303 .97983 -21.881 -644.095)"/><rect x="1046" y="327" width="7" height="14" fill="#98ACF8" rx="0" transform="matrix(-.9676 .19154 -.24301 -.98538 2180.202 370.278)"/><rect x="1651" y="253" width="9" height="22" fill="#98ACF8" rx="0" transform="matrix(-.73574 .45427 -.75738 -.89155 3171.848 -194.859)"/><rect x="446" y="864" width="7" height="9" fill="#B088F9" rx="0" transform="matrix(.91509 .44268 -.38277 .90763 527.143 -181.931)"/><rect x="1135" y="682" width="6" height="17" fill="#DA9FF9" rx="0" transform="matrix(.96222 -.12307 .28898 1.0023 5.659 -21.474)"/><rect x="1639" y="361" width="8" height="20" fill="#B088F9" rx="0" transform="matrix(.06707 .97354 -1.05564 -.41325 2056.102 -509.49)"/><rect x="683" y="314" width="9" height="22" fill="#98ACF8" rx="0" transform="matrix(-.79912 .57358 -.60218 -.81915 1443.955 196.89)"/><rect x="1571" y="741" width="8" height="17" fill="#bedcfa" rx="0" transform="matrix(-.93174 .24565 -.33376 -.98526 3419.058 823.336)"/><rect x="118" y="423" width="8" height="18" fill="#98ACF8" rx="0" transform="matrix(-.3102 .9205 -.95469 -.39073 610.065 488.494)"/><rect x="1718" y="362" width="7" height="8" fill="#bedcfa" rx="0" transform="matrix(.91597 .461 -.37153 .90475 222.054 -455.193)"/><rect x="1505" y="919" width="8" height="13" fill="#98ACF8" rx="0" transform="matrix(.99113 .1576 -.08705 .9951 35.735 -48.02)"/><rect x="279" y="943" width="7" height="14" fill="#bedcfa" rx="0" transform="matrix(-.8314 .21861 -.6629 -1.02849 1312.125 1957.093)"/><rect x="1301" y="322" width="9" height="24" fill="#DA9FF9" rx="0" transform="matrix(.61962 .70808 -.79266 .70808 742.767 -895.31)"/><rect x="1985" y="128" width="7" height="10" fill="#B088F9" rx="0" transform="matrix(.86788 .99484 -.73984 .30415 589.595 -1315.505)"/><rect x="1786" y="758" width="7" height="18" fill="#DA9FF9" rx="0" transform="matrix(-.6478 .55 -.82068 -.84691 3776.18 683.87)"/><rect x="1909" y="787" width="5" height="9" fill="#B088F9" rx="0" transform="matrix(-.98693 .19107 -.15633 -.98297 3933.825 1104.115)"/><rect x="51" y="448" width="5" height="9" fill="#B088F9" rx="0" transform="matrix(-.36521 .99801 -.95715 -.12254 443.344 448.933)"/><rect x="469" y="789" width="7" height="18" fill="#DA9FF9" rx="0" transform="matrix(.40777 .9406 -.90663 .36106 1133.798 7.43)"/><rect x="266" y="887" width="5" height="9" fill="#98ACF8" rx="0" transform="matrix(.3257 1.00452 -.91429 .25046 843.54 470.448)"/><rect x="1419" y="143" width="8" height="10" fill="#bedcfa" rx="0" transform="matrix(.25882 1.05504 -.96593 -.07378 1197.658 -852.431)"/><rect x="1325" y="705" width="8" height="18" fill="#B088F9" rx="0" transform="matrix(1.0294 .37604 -.11146 .93073 201.898 -334.02)"/><rect x="359" y="538" width="9" height="20" fill="#B088F9" rx="0" transform="matrix(-.83674 .57577 -.54182 -.82228 893.384 821.12)"/><rect x="1740" y="61" width="6" height="12" fill="#bedcfa" rx="0" transform="matrix(.9625 .24285 -.25746 .974 76.634 -574.031)"/><rect x="844" y="686" width="9" height="23" fill="#98ACF8" rx="0" transform="rotate(90.01 820.502 674.66) skewX(2.01)"/><rect x="1610" y="770" width="5" height="5" fill="#bedcfa" rx="0" transform="matrix(.59825 .98526 -.8658 .24565 1522.07 -721.679)"/><rect x="649" y="813" width="6" height="8" fill="#DA9FF9" rx="0" transform="matrix(.93603 .20995 -.35926 .98776 322.565 -218.524)"/><rect x="1372" y="68" width="7" height="13" fill="#DA9FF9" rx="0" transform="matrix(.99597 -.01746 .23087 1 0 0)"/><rect x="1071" y="192" width="7" height="17" fill="#bedcfa" rx="0" transform="matrix(.89246 .22842 -.51221 .9894 216.897 -432.777)"/><rect x="1159" y="30" width="8" height="11" fill="#bedcfa" rx="0" transform="matrix(-.84709 .461 -.50672 -.90475 2140.867 -263.45)"/><rect x="734" y="855" width="8" height="9" fill="#98ACF8" rx="0" transform="matrix(-.97303 .20906 -.20564 -.98354 1534.356 1628.132)"/><rect x="32" y="188" width="6" height="6" fill="#DA9FF9" rx="0" transform="matrix(-.588 .72209 -.81705 -.69731 255.025 295.851)"/><rect x="1194" y="427" width="6" height="17" fill="#B088F9" rx="0" transform="matrix(-.48315 .70288 -.90461 -.75374 2233.496 220.857)"/><rect x="1962" y="61" width="7" height="10" fill="#98ACF8" rx="0" transform="matrix(.87373 .94283 -.6532 .43965 436.652 -1252.554)"/><rect x="313" y="43" width="8" height="9" fill="#DA9FF9" rx="0" transform="matrix(1.04052 .3908 -.1076 .92065 5.902 -125.645)"/><rect x="217" y="242" width="6" height="14" fill="#B088F9" rx="0" transform="matrix(.45624 1.03465 -.95058 .03613 405.096 71.33)"/><rect x="56" y="137" width="6" height="14" fill="#DA9FF9" rx="0" transform="matrix(-.95266 .10822 -.17682 -1.0296 112.49 301.687)"/><rect x="1556" y="571" width="5" height="8" fill="#B088F9" rx="0" transform="matrix(.27797 1.00986 -.96102 .10614 1781.237 -1334.71)"/><rect x="81" y="924" width="5" height="9" fill="#bedcfa" rx="0" transform="matrix(.89794 .54386 -.40171 .87036 298.594 94.24)"/><rect x="1762" y="157" width="9" height="21" fill="#B088F9" rx="0" transform="matrix(.63617 .9056 -.73695 .52285 691.773 -979.738)"/><rect x="1256" y="419" width="7" height="17" fill="#DA9FF9" rx="0" transform="matrix(1.00352 .36284 -.14182 .94522 100.036 -234.086)"/><rect x="1309" y="370" width="5" height="11" fill="#98ACF8" rx="0" transform="matrix(-.36415 .9176 -.91999 -.42789 2170.2 -874.989)"/><rect x="133" y="87" width="5" height="7" fill="#bedcfa" rx="0" transform="matrix(-.22937 .73469 -1.1236 -.76079 310.2 106.458)"/><rect x="684" y="772" width="7" height="18" fill="#B088F9" rx="0" transform="matrix(-.11126 .85658 -1.08953 -.59978 1843.746 870.722)"/><rect x="828" y="973" width="9" height="23" fill="#98ACF8" rx="0" transform="matrix(.67633 .93415 -.81087 .35859 1377.641 -117.136)"/><rect x="1986" y="136" width="8" height="17" fill="#DA9FF9" rx="0" transform="matrix(.65537 .96651 -.78307 .37101 846.358 -1299.254)"/><rect x="594" y="754" width="6" height="15" fill="#98ACF8" rx="0" transform="matrix(.10143 1.00598 -.98518 .08801 1182.855 177.809)"/><rect x="1565" y="936" width="9" height="20" fill="#bedcfa" rx="0" transform="matrix(-.93494 .31378 -.30946 -.96573 3447.642 1090.35)"/><rect x="162" y="27" width="6" height="7" fill="#B088F9" rx="0" transform="matrix(.00454 .99405 -1.00662 -.1397 198.661 -143.693)"/><rect x="687" y="315" width="8" height="12" fill="#DA9FF9" rx="0" transform="matrix(-.91407 .3102 -.41052 -.95469 1505.048 352.654)"/><rect x="862" y="241" width="5" height="8" fill="#B088F9" rx="0" transform="matrix(-.95192 .47206 -.32808 -.88781 1759.739 -36.443)"/><rect x="820" y="269" width="5" height="12" fill="#bedcfa" rx="0" transform="matrix(-.36145 .68962 -1.04865 -.7659 1545.83 123.485)"/><rect x="1184" y="177" width="6" height="17" fill="#B088F9" rx="0" transform="matrix(.5857 1.01496 -.88199 .17896 740.275 -756.499)"/><rect x="1169" y="770" width="5" height="5" fill="#98ACF8" rx="0" transform="matrix(.65243 1.0457 -.9563 0 1535.24 -94.364)"/><rect x="1176" y="16" width="8" height="23" fill="#B088F9" rx="0" transform="matrix(1.01314 .29237 -.10648 .9563 -7.227 -343.797)"/><rect x="511" y="927" width="8" height="23" fill="#bedcfa" rx="0" transform="matrix(.43997 .9939 -.9521 .12204 1440.674 339.096)"/><rect x="1881" y="881" width="5" height="6" fill="#DA9FF9" rx="0" transform="matrix(.9205 .65468 -.39073 .80846 495.135 -523.69)"/><rect x="1160" y="176" width="5" height="9" fill="#DA9FF9" rx="0" transform="matrix(-.7733 .39457 -.71262 -.92955 2263.181 52.974)"/><rect x="1827" y="200" width="7" height="10" fill="#bedcfa" rx="0" transform="matrix(.63766 1.01168 -.8645 .19665 981.077 -1230.796)"/><rect x="1963" y="643" width="6" height="12" fill="#98ACF8" rx="0" transform="matrix(-.31724 .78316 -1.01068 -.65715 3453.012 -46.314)"/><rect x="165" y="35" width="7" height="16" fill="#DA9FF9" rx="0" transform="matrix(-.46807 .85926 -.88255 -.5163 289.153 -91.367)"/><rect x="1580" y="641" width="5" height="9" fill="#98ACF8" rx="0" transform="matrix(.68932 .877 -.69261 .56952 839.935 -626.147)"/><rect x="720" y="727" width="8" height="9" fill="#98ACF8" rx="0" transform="matrix(.98788 .45427 -.26252 .89155 376.888 -274.84)"/><rect x="372" y="668" width="9" height="19" fill="#bedcfa" rx="0" transform="matrix(.95608 .24325 -.27629 .97564 102.944 -35.51)"/><rect x="1156" y="719" width="9" height="24" fill="#bedcfa" rx="0" transform="matrix(.95673 .2808 -.22478 .97925 80.09 -85.12)"/><rect x="117" y="691" width="8" height="11" fill="#DA9FF9" rx="0" transform="matrix(-1.02726 -.1246 -.34015 -1.01472 662.285 1444.048)"/><rect x="280" y="885" width="5" height="12" fill="#DA9FF9" rx="0" transform="matrix(-.87996 .31287 -.488 -.96291 1257.278 1615.825)"/><rect x="1583" y="770" width="9" height="10" fill="#bedcfa" rx="0" transform="matrix(-.25623 .90977 -.9797 -.42423 2923.974 -479.367)"/><rect x="1158" y="208" width="5" height="7" fill="#98ACF8" rx="0" transform="matrix(.93377 .7756 -.50581 .6508 275.103 -642.415)"/><rect x="875" y="952" width="9" height="23" fill="#bedcfa" rx="0" transform="matrix(-.14042 .81964 -1.11423 -.61765 2455.594 1040.774)"/><rect x="988" y="471" width="9" height="26" fill="#bedcfa" rx="0" transform="matrix(-.56046 .59141 -.85995 -.8768 2022.712 663.142)"/><rect x="1820" y="284" width="6" height="17" fill="#bedcfa" rx="0" transform="matrix(-.9683 .22716 -.20797 -.98395 3653.503 -90.018)"/><rect x="706" y="623" width="6" height="13" fill="#B088F9" rx="0" transform="matrix(-.95095 .03597 -.57098 -1.02999 1973.85 1429.148)"/><rect x="1024" y="410" width="5" height="7" fill="#bedcfa" rx="0" transform="matrix(.29628 .89893 -.96793 .43844 1067.009 -708.464)"/><rect x="1960" y="428" width="5" height="7" fill="#B088F9" rx="0" transform="matrix(.60902 .60932 -.83298 .8086 1109.761 -1424.02)"/><rect x="475" y="717" width="9" height="25" fill="#B088F9" rx="0" transform="matrix(-.39018 .61464 -1.08993 -.84598 1763.359 1198.521)"/><rect x="161" y="300" width="5" height="6" fill="#98ACF8" rx="0" transform="matrix(1.03146 .29457 -.02105 .96349 52.403 -17.023)"/><rect x="1555" y="16" width="7" height="14" fill="#bedcfa" rx="0" transform="matrix(-.32573 .9601 -.9294 -.3306 2035.01 -1190.914)"/><rect x="1393" y="720" width="5" height="9" fill="#DA9FF9" rx="0" transform="matrix(1.01809 .27602 -.0725 .96258 153.614 -284.935)"/><rect x="1036" y="759" width="5" height="5" fill="#DA9FF9" rx="0" transform="matrix(-.9544 .15646 -.36566 -.98784 2459.637 1369.384)"/><rect x="1209" y="533" width="5" height="5" fill="#DA9FF9" rx="0" transform="matrix(.95686 .24565 -.233 .98526 233.795 -503.339)"/><rect x="289" y="259" width="9" height="20" fill="#B088F9" rx="0" transform="matrix(-.86248 .42789 -.48748 -.9176 729.141 343.765)"/><rect x="804" y="427" width="6" height="9" fill="#bedcfa" rx="0" transform="matrix(-.97815 0 -.22576 -1.02234 1704.305 1044.173)"/><rect x="1328" y="73" width="8" height="18" fill="#bedcfa" rx="0" transform="matrix(-.90486 .14178 -.61484 -1.0088 2685.452 234.788)"/><rect x="1370" y="267" width="9" height="11" fill="#DA9FF9" rx="0" transform="matrix(.96638 .29242 -.2589 .95645 129.78 -414.05)"/><rect x="590" y="765" width="9" height="26" fill="#bedcfa" rx="0" transform="matrix(.29525 .98769 -.9657 .15643 1279.634 69.113)"/><rect x="210" y="122" width="6" height="15" fill="#98ACF8" rx="0" transform="matrix(-.1871 .93073 -.99883 -.37604 413.993 -38.683)"/><rect x="246" y="171" width="8" height="14" fill="#bedcfa" rx="0" transform="matrix(-.83654 .80463 -.61243 -.60633 542.173 54.073)"/><rect x="605" y="397" width="6" height="6" fill="#B088F9" rx="0" transform="rotate(157 608 400)"/><rect x="752" y="567" width="7" height="16" fill="#B088F9" rx="0" transform="matrix(-.88781 .3746 -.47206 -.92718 1758.11 825.115)"/><rect x="384" y="134" width="6" height="17" fill="#B088F9" rx="0" transform="matrix(.1047 .98402 -.99588 .19127 486.382 -292.636)"/><rect x="1347" y="14" width="5" height="10" fill="#DA9FF9" rx="0" transform="matrix(-.60046 .7264 -.79677 -.70149 2171.324 -758.301)"/><rect x="1580" y="133" width="7" height="11" fill="#98ACF8" rx="0" transform="matrix(-.28227 .85442 -.98 -.57631 2203.502 -739.84)"/><rect x="1097" y="372" width="5" height="14" fill="#bedcfa" rx="0" transform="matrix(.04606 1.0043 -1.00056 -.10556 1492.443 -839.742)"/><rect x="78" y="363" width="9" height="17" fill="#bedcfa" rx="0" transform="matrix(-.6712 .79912 -.74559 -.60218 395.541 526.402)"/><rect x="1199" y="142" width="8" height="10" fill="#B088F9" rx="0" transform="matrix(.34624 .95728 -.9186 .34842 854.351 -821.987)"/><rect x="1205" y="302" width="9" height="25" fill="#bedcfa" rx="0" transform="matrix(-.8284 .21741 -.70222 -1.02284 2577.756 743.005)"/><rect x="939" y="983" width="8" height="18" fill="#DA9FF9" rx="0" transform="matrix(-.21108 1.00229 -1.0014 .0175 1988.767 -36.455)"/><rect x="870" y="459" width="8" height="21" fill="#B088F9" rx="0" transform="matrix(-.74586 .32492 -.78217 -1 2039.57 939)"/><rect x="878" y="32" width="7" height="19" fill="#B088F9" rx="0" transform="matrix(-.50051 .89223 -.86576 -.45461 1349.415 -679.936)"/><rect x="329" y="914" width="5" height="14" fill="#bedcfa" rx="0" transform="matrix(-.14328 .91368 -1.03068 -.4068 1608.06 986.989)"/><rect x="309" y="500" width="5" height="5" fill="#bedcfa" rx="0" transform="matrix(.85172 .5189 -.50962 .8636 359.277 -131.348)"/><rect x="659" y="332" width="6" height="16" fill="#B088F9" rx="0" transform="matrix(-.981 .05254 -.31593 -1.00244 1489.005 703.97)"/><rect x="1006" y="682" width="8" height="8" fill="#98ACF8" rx="0" transform="matrix(-.28697 .83378 -.99085 -.60578 2078.137 511.264)"/><rect x="232" y="669" width="8" height="12" fill="#98ACF8" rx="0" transform="matrix(-.57493 .77726 -.821 -.62942 961.447 920.541)"/><rect x="623" y="795" width="9" height="16" fill="#DA9FF9" rx="0" transform="matrix(-.22922 .73942 -1.1232 -.73942 1996.51 1124.613)"/><rect x="1415" y="625" width="9" height="10" fill="#DA9FF9" rx="0" transform="matrix(.738 .53513 -.68767 .85638 782.58 -868.631)"/><rect x="1074" y="788" width="5" height="6" fill="#98ACF8" rx="0" transform="matrix(-.891 .23184 -.45399 -1.0042 2394.775 1604.15)"/><rect x="1752" y="470" width="7" height="7" fill="#98ACF8" rx="0" transform="matrix(.87377 .61604 -.50491 .7885 516.891 -920)"/><rect x="236" y="120" width="9" height="9" fill="#98ACF8" rx="0" transform="matrix(-.79285 .56782 -.58567 -.84183 521.547 50.34)"/><rect x="895" y="476" width="7" height="14" fill="#bedcfa" rx="0" transform="matrix(.59902 .68241 -.82301 .7318 686.263 -514.985)"/><rect x="187" y="902" width="5" height="10" fill="#B088F9" rx="0" transform="matrix(.8337 .87454 -.66212 .50491 864.837 309.951)"/><rect x="1814" y="230" width="9" height="16" fill="#DA9FF9" rx="0" transform="matrix(-.95322 .12415 -.29137 -1.01112 3610.958 606.36)"/><rect x="551" y="183" width="6" height="16" fill="#98ACF8" rx="0" transform="matrix(-.95384 .10614 -.34625 -1.00986 1168.748 422.767)"/><rect x="826" y="473" width="6" height="13" fill="#98ACF8" rx="0" transform="matrix(-.08195 .98354 -.99932 -.20906 1466.696 -322.74)"/><rect x="1857" y="794" width="9" height="14" fill="#DA9FF9" rx="0" transform="matrix(.50363 .96725 -.89891 .25917 1859.084 -1304.694)"/><rect x="51" y="46" width="5" height="12" fill="#DA9FF9" rx="0" transform="matrix(-.75178 .61905 -.65313 -.79235 124.663 65.706)"/><rect x="435" y="603" width="9" height="26" fill="#DA9FF9" rx="0" transform="matrix(-.51769 .7718 -.86129 -.64761 1220.971 729.69)"/><rect x="1537" y="230" width="8" height="10" fill="#bedcfa" rx="0" transform="matrix(.5833 .79235 -.80634 .61905 775.834 -969.525)"/><rect x="565" y="678" width="8" height="10" fill="#bedcfa" rx="0" transform="matrix(-.87138 .16545 -.54252 -1.0446 1496.814 1498.244)"/><rect x="1168" y="357" width="9" height="13" fill="#DA9FF9" rx="0" transform="matrix(-.40945 .85834 -.91901 -.51574 2016.357 -393.987)"/><rect x="680" y="478" width="5" height="9" fill="#98ACF8" rx="0" transform="matrix(.36162 1.00554 -1.0453 -.14132 1135.93 -15.254)"/><rect x="1608" y="220" width="6" height="17" fill="#bedcfa" rx="0" transform="matrix(.38617 1.04362 -.91078 .12814 1170.729 -958.614)"/><rect x="855" y="554" width="8" height="8" fill="#B088F9" rx="0" transform="matrix(.76795 .57436 -.6443 .82028 540.937 -438.11)"/><rect x="1688" y="27" width="6" height="14" fill="#bedcfa" rx="0" transform="matrix(1.03217 .12233 .23207 .99634 -13.539 -58.8)"/><rect x="1618" y="877" width="5" height="13" fill="#B088F9" rx="0" transform="matrix(.98904 .01758 -.20961 1.00736 155.09 -233.966)"/><rect x="1989" y="652" width="8" height="9" fill="#B088F9" rx="0" transform="matrix(-.37092 .73205 -.9951 -.73205 3595.451 212.137)"/><rect x="1948" y="628" width="8" height="13" fill="#DA9FF9" rx="0" transform="matrix(-.86967 .61905 -.50225 -.79235 3953.273 -276.307)"/><rect x="210" y="704" width="9" height="19" fill="#B088F9" rx="0" transform="matrix(-.41508 .83513 -.88463 -.62931 866.562 1048.96)"/><rect x="1162" y="158" width="9" height="23" fill="#bedcfa" rx="0" transform="matrix(-.93813 .31287 -.30894 -.96291 2310.784 -217.004)"/><rect x="1064" y="519" width="8" height="12" fill="#B088F9" rx="0" transform="matrix(.81573 .48957 -.57097 .88322 509.65 -611.65)"/><rect x="1869" y="108" width="6" height="8" fill="#DA9FF9" rx="0" transform="matrix(-.94647 .26024 -.31026 -.97125 3665.117 -463.154)"/><rect x="198" y="635" width="5" height="14" fill="#DA9FF9" rx="0" transform="matrix(.01532 .9761 -1.02889 -.27989 941.143 661.336)"/><rect x="1340" y="463" width="6" height="15" fill="#DA9FF9" rx="0" transform="matrix(.39073 .99646 -.9205 .2118 1251.346 -706.34)"/><rect x="1237" y="666" width="5" height="10" fill="#bedcfa" rx="0" transform="matrix(.48596 .8388 -.8766 .54472 1191.317 -755.835)"/><rect x="656" y="85" width="6" height="14" fill="#bedcfa" rx="0" transform="matrix(.5866 .80059 -.80705 .60328 349.089 -537.17)"/><rect x="396" y="280" width="8" height="15" fill="#B088F9" rx="0" transform="matrix(.61516 .811 -.78612 .58922 407.223 -234.269)"/><rect x="1432" y="322" width="9" height="24" fill="#DA9FF9" rx="0" transform="matrix(.14306 1.00122 -1.00128 -.01748 1620.414 -1173.699)"/><rect x="1569" y="613" width="9" height="21" fill="#DA9FF9" rx="0" transform="matrix(.3633 .9783 -.94496 .20794 1696.113 -1072.968)"/><rect x="585" y="499" width="5" height="6" fill="#B088F9" rx="0" transform="matrix(-.6837 .67005 -.7331 -.74416 1375.797 512.707)"/><rect x="1217" y="786" width="7" height="16" fill="#B088F9" rx="0" transform="matrix(.30118 1.0069 -1.00367 -.03516 1850.448 -257.14)"/><rect x="902" y="28" width="5" height="10" fill="#98ACF8" rx="0" transform="matrix(1.05951 .22664 .17697 .98169 -18.359 -93.333)"/><rect x="389" y="831" width="9" height="11" fill="#98ACF8" rx="0" transform="matrix(1.0267 .72474 -.38833 .69988 619.004 14.184)"/><rect x="1699" y="91" width="7" height="12" fill="#98ACF8" rx="0" transform="matrix(-.76377 .43053 -.68482 -.92327 3114.218 -215.485)"/><rect x="676" y="896" width="8" height="21" fill="#bedcfa" rx="0" transform="matrix(.72435 .5381 -.6992 .86113 793.797 -359.921)"/><rect x="1823" y="899" width="8" height="8" fill="#B088F9" rx="0" transform="matrix(-.024 1.03018 -.96734 -.14478 2518.34 -324.509)"/><rect x="608" y="250" width="9" height="19" fill="#98ACF8" rx="0" transform="matrix(.1769 .99985 -1.00324 -.01745 814.932 -348.378)"/><rect x="1656" y="251" width="6" height="6" fill="#DA9FF9" rx="0" transform="matrix(.17477 .94893 -.9902 .34538 1619.834 -1641.155)"/><rect x="1610" y="304" width="8" height="23" fill="#B088F9" rx="0" transform="matrix(.83048 .55143 -.53464 .84912 451.763 -1098.036)"/><rect x="58" y="583" width="5" height="6" fill="#DA9FF9" rx="0" transform="matrix(-.16546 .7892 -1.12329 -.68604 913.57 958.767)"/><rect x="131" y="61" width="7" height="17" fill="#B088F9" rx="0" transform="matrix(1.05726 .24494 .15778 .9824 3.972 -10.418)"/><rect x="1466" y="801" width="5" height="5" fill="#B088F9" rx="0" transform="matrix(.89099 .64279 -.49388 .76604 713.102 -755.95)"/><rect x="1132" y="317" width="6" height="10" fill="#98ACF8" rx="0" transform="matrix(-.2351 .7213 -1.13427 -.7735 1998.69 143.207)"/><rect x="1753" y="956" width="6" height="7" fill="#DA9FF9" rx="0" transform="matrix(-.79187 .38782 -.61857 -.9599 3764.996 1670.02)"/><rect x="151" y="382" width="6" height="13" fill="#DA9FF9" rx="0" transform="matrix(-.36142 1 -.94276 -.15838 556.838 271.641)"/><rect x="1305" y="244" width="6" height="11" fill="#DA9FF9" rx="0" transform="matrix(.57185 .91266 -.81679 .44513 755.422 -824.684)"/><rect x="157" y="571" width="5" height="5" fill="#bedcfa" rx="0" transform="matrix(1.05016 .28536 .15802 .99517 10.032 -.008)"/><rect x="476" y="907" width="8" height="10" fill="#DA9FF9" rx="0" transform="matrix(-.2448 1.0049 -.98658 -.0351 1406.708 411.204)"/><rect x="1334" y="836" width="7" height="10" fill="#98ACF8" rx="0" transform="matrix(-.68243 .35765 -.92109 -.98263 3431.007 1597.952)"/><rect x="1106" y="456" width="7" height="20" fill="#B088F9" rx="0" transform="matrix(-.75147 .63172 -.65498 -.78011 2293.777 31.567)"/><rect x="59" y="631" width="9" height="25" fill="#98ACF8" rx="0" transform="matrix(.98769 0 .04037 1.01247 97.933 -18.079)"/><rect x="279" y="518" width="7" height="13" fill="#B088F9" rx="0" transform="matrix(.9901 .6825 -.32622 .78512 248.242 .902)"/><rect x="176" y="710" width="8" height="23" fill="#DA9FF9" rx="0" transform="matrix(.79989 .94149 -.73897 .38039 785.178 309.323)"/><rect x="40" y="363" width="9" height="17" fill="#DA9FF9" rx="0" transform="matrix(.98836 .26366 -.10412 .984 25.923 2.86)"/><rect x="1150" y="279" width="7" height="19" fill="#bedcfa" rx="0" transform="matrix(1.01826 .3908 -.16005 .92065 97.023 -448.018)"/><rect x="792" y="655" width="5" height="10" fill="#bedcfa" rx="0" transform="matrix(.96617 .08764 -.36743 1.00168 167.728 -154.242)"/><rect x="1487" y="212" width="8" height="23" fill="#bedcfa" rx="0" transform="matrix(-.95072 .10822 -.1953 -1.0296 2853.497 691.78)"/><rect x="451" y="656" width="8" height="18" fill="#bedcfa" rx="0" transform="matrix(1.0152 .40829 -.16905 .91704 320.77 -170.408)"/><rect x="1876" y="839" width="8" height="19" fill="#bedcfa" rx="0" transform="matrix(.6112 .71802 -.78152 .71802 1421.15 -1442.099)"/><rect x="128" y="783" width="7" height="10" fill="#B088F9" rx="0" transform="matrix(-.79781 .43844 -.64506 -.89893 912.706 1440.998)"/><rect x="1918" y="915" width="6" height="13" fill="#98ACF8" rx="0" transform="matrix(1.00278 .01746 .15948 1 20.295 -67.062)"/><rect x="641" y="662" width="5" height="5" fill="#98ACF8" rx="0" transform="matrix(.90251 .711 -.50395 .711 526.703 -197.856)"/><rect x="864" y="253" width="9" height="20" fill="#98ACF8" rx="0" transform="matrix(.73831 .45845 -.73223 .89976 394.998 -493.863)"/><rect x="366" y="942" width="5" height="14" fill="#98ACF8" rx="0" transform="matrix(.58827 .83982 -.8087 .54539 1016.896 102.642)"/><rect x="1214" y="612" width="8" height="16" fill="#bedcfa" rx="0" transform="matrix(-.15934 1.00261 -.975 -.1409 1873.233 -320.906)"/><rect x="764" y="392" width="8" height="17" fill="#B088F9" rx="0" transform="matrix(-.99255 .27907 -.12187 -.97324 1579.084 454.317)"/><rect x="649" y="967" width="9" height="13" fill="#bedcfa" rx="0" transform="matrix(.13861 .9761 -.98475 .27989 1551.54 -52.077)"/><rect x="782" y="424" width="8" height="18" fill="#DA9FF9" rx="0" transform="matrix(.93821 .56056 -.39298 .83106 320.02 -422.411)"/><rect x="27" y="234" width="7" height="12" fill="#bedcfa" rx="0" transform="matrix(.71237 .9742 -.80869 .29784 264.174 144.733)"/><rect x="1267" y="630" width="5" height="8" fill="#bedcfa" rx="0" transform="matrix(-.92698 .19665 -.31629 -1.01168 2546.919 1342.278)"/><rect x="661" y="139" width="5" height="12" fill="#DA9FF9" rx="0" transform="matrix(-.94884 .20794 -.34507 -.9783 1362.315 160.464)"/><rect x="1235" y="222" width="6" height="10" fill="#bedcfa" rx="0" transform="matrix(1.00413 .22716 -.0528 .98395 20.878 -103.592)"/><rect x="1102" y="780" width="9" height="23" fill="#bedcfa" rx="0" transform="matrix(.85915 .39367 -.51619 .92742 552.965 -514.003)"/><rect x="1042" y="962" width="8" height="15" fill="#DA9FF9" rx="0" transform="matrix(-.69681 .77762 -.7217 -.6297 2425.667 730.08)"/><rect x="678" y="626" width="7" height="12" fill="#bedcfa" rx="0" transform="matrix(-.45732 .74496 -.93059 -.67076 1725.756 595.888)"/><rect x="1666" y="790" width="9" height="26" fill="#bedcfa" rx="0" transform="matrix(-.88491 .22619 -.58809 -.97974 3883.187 1387.455)"/><rect x="81" y="687" width="7" height="18" fill="#DA9FF9" rx="0" transform="matrix(-.48569 .61147 -.9669 -.84162 951.595 1254.328)"/><rect x="1578" y="98" width="9" height="13" fill="#B088F9" rx="0" transform="matrix(.53154 .89162 -.83892 .47409 803.942 -1578.444)"/><rect x="795" y="806" width="5" height="14" fill="#bedcfa" rx="0" transform="matrix(-.0219 1.02293 -.9749 -.1256 1465.345 298.164)"/><rect x="1798" y="761" width="6" height="14" fill="#bedcfa" rx="0" transform="matrix(-.33988 .93198 -.92872 -.3956 3015.671 -321.422)"/><rect x="18" y="922" width="7" height="18" fill="#DA9FF9" rx="0" transform="matrix(-.95904 .29457 -.25794 -.96349 363.485 1819.033)"/><rect x="1675" y="868" width="6" height="13" fill="#98ACF8" rx="0" transform="matrix(-.7879 .4851 -.64001 -.87515 3733.2 767.218)"/><rect x="975" y="479" width="8" height="9" fill="#98ACF8" rx="0" transform="matrix(-.4921 .6527 -.94563 -.77786 2069.454 393.223)"/><rect x="743" y="888" width="7" height="15" fill="#B088F9" rx="0" transform="matrix(.07118 1.00598 -.98782 .08801 1675.029 -39.196)"/><rect x="821" y="584" width="7" height="19" fill="#bedcfa" rx="0" transform="matrix(1.07207 .47996 -.06724 .90267 157.966 -162.71)"/><rect x="1499" y="63" width="9" height="21" fill="#DA9FF9" rx="0" transform="matrix(1.00535 .10493 .03487 .99832 .144 -26.096)"/><rect x="308" y="615" width="9" height="19" fill="#DA9FF9" rx="0" transform="matrix(-1.02945 -.1472 -.5311 -1.04733 1203.755 1432.156)"/><rect x="326" y="728" width="5" height="10" fill="#98ACF8" rx="0" transform="matrix(-.93817 .38039 -.30687 -.94149 932.574 1240.23)"/><rect x="1292" y="622" width="5" height="5" fill="#B088F9" rx="0" transform="matrix(-.22402 .7522 -1.11309 -.7264 2591.542 500.171)"/><rect x="1203" y="464" width="7" height="11" fill="#B088F9" rx="0" transform="matrix(.1572 .99772 -.9913 .06977 1529.385 -788.06)"/><rect x="1861" y="112" width="6" height="7" fill="#98ACF8" rx="0" transform="matrix(.01746 1 -1.00435 -.24933 1957.595 -1254.955)"/><rect x="1010" y="346" width="8" height="17" fill="#98ACF8" rx="0" transform="matrix(.51557 .89223 -.85809 .45461 802.516 -658.24)"/><rect x="289" y="888" width="6" height="15" fill="#B088F9" rx="0" transform="matrix(-.01746 1 -1.00308 .17633 1180.62 394.112)"/><rect x="1220" y="440" width="8" height="16" fill="#bedcfa" rx="0" transform="matrix(-.57027 .60328 -.90082 -.80059 2488.71 153.832)"/><rect x="1691" y="750" width="6" height="9" fill="#DA9FF9" rx="0" transform="matrix(-.77186 .46249 -.64736 -.90768 3527.81 985.173)"/><rect x="1696" y="658" width="7" height="11" fill="#DA9FF9" rx="0" transform="matrix(-.90588 .29457 -.43181 -.96349 3647.42 593.484)"/><rect x="1586" y="805" width="6" height="12" fill="#DA9FF9" rx="0" transform="matrix(-.64697 .89657 -.77136 -.47671 3224.075 -507.216)"/><rect x="677" y="17" width="8" height="9" fill="#B088F9" rx="0" transform="matrix(-.98227 .08717 -.24456 -.99635 1359.877 -4.554)"/><rect x="1524" y="345" width="8" height="18" fill="#DA9FF9" rx="0" transform="matrix(.28437 1.00506 -1.01486 -.07028 1577.78 -969.23)"/><rect x="237" y="758" width="6" height="11" fill="#B088F9" rx="0" transform="matrix(.0163 .98162 -1.02498 -.37681 1077.5 893.586)"/><rect x="1410" y="531" width="5" height="14" fill="#bedcfa" rx="0" transform="matrix(-.96636 .22499 -.25898 -.97452 2943.715 719.844)"/><rect x="356" y="485" width="6" height="11" fill="#98ACF8" rx="0" transform="matrix(.91531 .56616 -.40927 .83937 372.048 -181.324)"/><rect x="1199" y="634" width="8" height="9" fill="#DA9FF9" rx="0" transform="matrix(.12296 .99146 -1.02809 -.15703 1856.079 -348.714)"/><rect x="406" y="287" width="9" height="17" fill="#bedcfa" rx="0" transform="matrix(.64987 .95996 -.84303 .29349 487.874 -149.374)"/><rect x="979" y="447" width="5" height="10" fill="#B088F9" rx="0" transform="matrix(-.9436 .6625 -.42393 -.76213 2049.519 8.29)"/><rect x="778" y="747" width="6" height="9" fill="#98ACF8" rx="0" transform="matrix(-.66923 .73135 -.74326 -.682 1875.346 692.835)"/><rect x="1915" y="29" width="8" height="12" fill="#bedcfa" rx="0" transform="matrix(-.1566 .99315 -.98767 -.12194 2246.957 -1799.576)"/><rect x="758" y="777" width="9" height="21" fill="#B088F9" rx="0" transform="matrix(.81168 1.0345 -.79411 .2199 1070.057 88.072)"/><rect x="1202" y="382" width="9" height="11" fill="#DA9FF9" rx="0" transform="matrix(-.88739 .39676 -.42987 -.9347 2370.007 483.747)"/><rect x="407" y="712" width="9" height="11" fill="#B088F9" rx="0" transform="matrix(.87703 .73147 -.54927 .6821 625.388 -65.723)"/><rect x="1390" y="649" width="9" height="10" fill="#98ACF8" rx="0" transform="matrix(-.11981 1.01527 -.98287 -.01772 2232.914 -996.095)"/><rect x="797" y="258" width="7" height="12" fill="#B088F9" rx="0" transform="matrix(-.97437 0 -.31474 -1.0263 1702.84 719.754)"/><rect x="1011" y="160" width="8" height="13" fill="#bedcfa" rx="0" transform="matrix(.16695 1.05002 -.96111 -.05503 962.147 -560.316)"/><rect x="1140" y="164" width="6" height="13" fill="#B088F9" rx="0" transform="matrix(-.8942 .26366 -.45555 -.984 2249.586 259.082)"/><rect x="1702" y="852" width="7" height="8" fill="#DA9FF9" rx="0" transform="matrix(.70658 .68293 -.70656 .73236 1118.623 -1025.024)"/><rect x="498" y="849" width="6" height="13" fill="#98ACF8" rx="0" transform="matrix(-.85942 .67005 -.53795 -.74416 1289.965 1130.182)"/><rect x="1241" y="980" width="5" height="10" fill="#B088F9" rx="0" transform="matrix(.01714 1.00786 -.9943 -.12375 2159.525 72.885)"/><rect x="1255" y="466" width="7" height="12" fill="#DA9FF9" rx="0" transform="matrix(-.95403 .15653 -.36507 -.98829 2722.432 785.428)"/><rect x="897" y="342" width="7" height="19" fill="#B088F9" rx="0" transform="matrix(1.05574 .19438 .28675 1 0 0)"/><rect x="690" y="27" width="8" height="10" fill="#98ACF8" rx="0" transform="matrix(-.24192 .96607 -.9703 -.25886 892.943 -618.057)"/><rect x="59" y="97" width="5" height="13" fill="#DA9FF9" rx="0" transform="matrix(-.62542 .62516 -.7991 -.80017 190.665 158.714)"/><rect x="1293" y="861" width="6" height="14" fill="#B088F9" rx="0" transform="matrix(.9971 .29255 -.15684 .95689 284.966 -386.98)"/><rect x="1062" y="418" width="7" height="20" fill="#bedcfa" rx="0" transform="matrix(.42029 .86933 -.90765 .50191 914.252 -619.873)"/><rect x="1825" y="606" width="8" height="21" fill="#bedcfa" rx="0" transform="matrix(-.72378 .401 -.7886 -.94472 3859.755 887.731)"/><rect x="1694" y="139" width="8" height="12" fill="#98ACF8" rx="0" transform="matrix(-.77085 .54497 -.64795 -.83918 3114.435 -717.975)"/><rect x="1034" y="61" width="6" height="12" fill="#B088F9" rx="0" transform="matrix(.12295 1.01496 -1.00694 -.17896 994.03 -714.966)"/><rect x="447" y="950" width="5" height="8" fill="#bedcfa" rx="0" transform="matrix(-.0706 1.00368 -.99016 -.08781 1319.775 641.81)"/><rect x="813" y="527" width="7" height="7" fill="#98ACF8" rx="0" transform="matrix(-.7113 .50275 -.75705 -.8708 1918.685 667.776)"/><rect x="1360" y="817" width="7" height="13" fill="#98ACF8" rx="0" transform="matrix(1.08123 .56385 -.10856 .86826 253.11 -294.972)"/><rect x="1019" y="124" width="8" height="20" fill="#bedcfa" rx="0" transform="matrix(-.9962 .17431 -.08716 -.98857 2053.786 -1.353)"/><rect x="209" y="968" width="5" height="7" fill="#98ACF8" rx="0" transform="matrix(.80753 .7731 -.5664 .6961 536.872 192.38)"/><rect x="1667" y="562" width="6" height="12" fill="#98ACF8" rx="0" transform="matrix(.4131 .83018 -.92592 .55996 1447.042 -1223.971)"/><rect x="1957" y="633" width="6" height="9" fill="#DA9FF9" rx="0" transform="matrix(-.97089 .20791 -.24207 -.97815 4039.52 853.562)"/><rect x="230" y="957" width="5" height="10" fill="#DA9FF9" rx="0" transform="matrix(.99844 .07014 .02133 1.00306 162.09 -43.687)"/><rect x="525" y="642" width="5" height="13" fill="#bedcfa" rx="0" transform="matrix(.06993 1 -1.00244 -.03492 1187.333 162.067)"/><rect x="748" y="682" width="5" height="14" fill="#bedcfa" rx="0" transform="matrix(-.08691 1.00921 -.9939 .03524 1510.715 -198.172)"/><rect x="1450" y="876" width="7" height="18" fill="#DA9FF9" rx="0" transform="matrix(-.5927 .52468 -.91952 -.87321 3463.543 1177.704)"/><rect x="521" y="724" width="5" height="9" fill="#DA9FF9" rx="0" transform="matrix(-.19508 .92775 -.99906 -.37483 1471.718 534.172)"/><rect x="819" y="989" width="9" height="20" fill="#B088F9" rx="0" transform="matrix(-.94751 .39367 -.30802 -.92742 1942.849 1500.194)"/><rect x="1539" y="594" width="5" height="13" fill="#DA9FF9" rx="0" transform="matrix(-.85896 .57393 -.51567 -.81965 3106.468 261.824)"/><rect x="348" y="891" width="9" height="26" fill="#98ACF8" rx="0" transform="matrix(-.20314 .99708 -.9671 -.17581 1402.513 655.632)"/><rect x="1023" y="551" width="9" height="21" fill="#DA9FF9" rx="0" transform="matrix(.95325 .66424 -.4089 .76412 392.336 -387.315)"/><rect x="1253" y="340" width="7" height="14" fill="#bedcfa" rx="0" transform="matrix(.35295 .99635 -.97279 .08717 1242.567 -913.225)"/><rect x="965" y="985" width="7" height="9" fill="#98ACF8" rx="0" transform="matrix(.59221 .93372 -.84365 .35842 1490.345 -286.375)"/><rect x="1888" y="11" width="7" height="11" fill="#bedcfa" rx="0" transform="matrix(.04171 .92493 -1.09973 -.4118 1933.453 -1426.632)"/><rect x="1078" y="446" width="6" height="10" fill="#B088F9" rx="0" transform="matrix(-.16133 .90987 -1.00964 -.50435 1763.953 4.867)"/><rect x="936" y="529" width="7" height="19" fill="#98ACF8" rx="0" transform="matrix(.4319 1.01404 -1.0088 -.05314 1292.257 -219.909)"/><rect x="709" y="967" width="7" height="16" fill="#bedcfa" rx="0" transform="matrix(.79716 .93198 -.73461 .3956 1172.705 38.102)"/><rect x="138" y="539" width="8" height="9" fill="#bedcfa" rx="0" transform="matrix(.93365 .39097 -.35821 .92107 241.768 -17.576)"/><rect x="483" y="159" width="9" height="23" fill="#bedcfa" rx="0" transform="matrix(.70659 1.0457 -.88203 .1099 387.735 -199.62)"/><rect x="1981" y="101" width="9" height="22" fill="#B088F9" rx="0" transform="matrix(-.19591 .8407 -1.0523 -.58866 2613.579 -1032.889)"/><rect x="1001" y="739" width="9" height="17" fill="#bedcfa" rx="0" transform="matrix(-.92548 .2808 -.33375 -.97925 2069.775 1392.6)"/><rect x="1719" y="653" width="9" height="21" fill="#B088F9" rx="0" transform="matrix(-.90007 .27716 -.46915 -.96656 3733.53 645.985)"/><rect x="631" y="343" width="9" height="24" fill="#DA9FF9" rx="0" transform="matrix(-.19202 1.0032 -.9901 -.03503 1088.077 -325.701)"/><rect x="1989" y="841" width="5" height="11" fill="#bedcfa" rx="0" transform="matrix(.52749 .87944 -.8447 .48748 1600.715 -1108.236)"/><rect x="731" y="490" width="9" height="12" fill="#98ACF8" rx="0" transform="matrix(.97038 .35886 -.25867 .93486 222.537 -270.179)"/><rect x="432" y="92" width="8" height="14" fill="#B088F9" rx="0" transform="matrix(.22371 .98188 -.9709 .2087 424.99 -311.618)"/><rect x="706" y="14" width="8" height="13" fill="#bedcfa" rx="0" transform="matrix(.77614 .82193 -.58815 .66558 147.816 -332.239)"/><rect x="1530" y="804" width="6" height="6" fill="#98ACF8" rx="0" transform="matrix(-.96936 .45461 -.29718 -.89223 3169.642 749.765)"/><rect x="1684" y="669" width="9" height="21" fill="#DA9FF9" rx="0" transform="matrix(.1763 1.00293 -1.025 -.15885 2242.087 -608.274)"/><rect x="1187" y="734" width="8" height="11" fill="#98ACF8" rx="0" transform="matrix(.83381 .83974 -.56253 .63279 633.587 -341.59)"/><rect x="1959" y="601" width="5" height="14" fill="#B088F9" rx="0" transform="matrix(.3746 .93372 -.92718 .35842 1790.437 -1407.18)"/><rect x="484" y="949" width="8" height="22" fill="#bedcfa" rx="0" transform="matrix(-1.01295 .10453 .07083 -.99452 745.048 1863.731)"/><rect x="59" y="316" width="6" height="14" fill="#B088F9" rx="0" transform="matrix(.88417 .78316 -.53497 .65715 221.256 75.364)"/><rect x="1085" y="681" width="7" height="14" fill="#98ACF8" rx="0" transform="matrix(-.87462 .3148 -.48481 -.96886 2374.073 1223.496)"/><rect x="1319" y="937" width="8" height="11" fill="#bedcfa" rx="0" transform="matrix(-.22194 .85442 -1.02069 -.57631 2757.443 685.14)"/><rect x="1215" y="229" width="7" height="19" fill="#B088F9" rx="0" transform="matrix(.67685 .94199 -.81523 .34286 681.016 -905.877)"/><rect x="1926" y="871" width="8" height="21" fill="#bedcfa" rx="0" transform="matrix(.80646 .93415 -.74466 .37742 1415.07 -1017.125)"/><rect x="707" y="823" width="9" height="15" fill="#98ACF8" rx="0" transform="matrix(.24402 .92945 -.97732 .37552 1294.943 -192.426)"/><rect x="645" y="318" width="6" height="14" fill="#98ACF8" rx="0" transform="matrix(1.01772 .29398 -.07274 .96157 60.424 -109.904)"/><rect x="998" y="614" width="6" height="7" fill="#bedcfa" rx="0" transform="matrix(.63155 .8322 -.77564 .56133 941.218 -649.733)"/><rect x="648" y="945" width="7" height="20" fill="#DA9FF9" rx="0" transform="matrix(-.19141 .94522 -.98448 -.36284 1734.855 788.886)"/><rect x="370" y="387" width="6" height="13" fill="#98ACF8" rx="0" transform="matrix(.97993 .2758 -.20833 .96185 103.663 -74.837)"/><rect x="1152" y="438" width="7" height="8" fill="#98ACF8" rx="0" transform="matrix(-.73984 .8272 -.69085 -.57921 2296.192 -420.215)"/><rect x="358" y="596" width="5" height="5" fill="#98ACF8" rx="0" transform="matrix(-.05225 .99646 -.99245 -.2118 949.97 436.116)"/><rect x="1406" y="609" width="8" height="22" fill="#B088F9" rx="0" transform="matrix(-.30269 .84805 -.99004 -.52992 2616.74 -247.198)"/><rect x="520" y="105" width="7" height="17" fill="#B088F9" rx="0" transform="matrix(.96307 .50191 -.3243 .86933 75.552 -293.72)"/><rect x="107" y="444" width="6" height="15" fill="#B088F9" rx="0" transform="matrix(-.48703 .92107 -.87897 -.39097 529.124 522.864)"/><rect x="1863" y="956" width="9" height="19" fill="#98ACF8" rx="0" transform="matrix(1.0539 .30573 .17633 1 0 0)"/><rect x="209" y="78" width="9" height="21" fill="#98ACF8" rx="0" transform="matrix(-.47907 .57892 -1.01711 -.85828 450.342 98.066)"/><rect x="1683" y="281" width="5" height="10" fill="#DA9FF9" rx="0" transform="matrix(.73135 .65646 -.682 .75517 647.855 -1095.299)"/><rect x="85" y="27" width="9" height="18" fill="#B088F9" rx="0" transform="matrix(.43778 .90755 -.89773 .4232 81.216 -55.77)"/><rect x="1377" y="56" width="8" height="20" fill="#98ACF8" rx="0" transform="matrix(.9803 .4118 -.22652 .92493 52.09 -345.022)"/><rect x="1972" y="757" width="8" height="23" fill="#DA9FF9" rx="0" transform="matrix(.99685 .10467 -.0693 .99589 117.669 -307.228)"/><rect x="1730" y="166" width="5" height="5" fill="#DA9FF9" rx="0" transform="matrix(-.309 .93415 -.95188 -.35859 2437.689 -1449.992)"/><rect x="404" y="316" width="7" height="19" fill="#98ACF8" rx="0" transform="matrix(-.6508 .65606 -.7756 -.75471 976.71 303.814)"/><rect x="1730" y="586" width="5" height="6" fill="#DA9FF9" rx="0" transform="matrix(.9063 .6997 -.42262 .7771 411.244 -551.272)"/><rect x="1675" y="196" width="7" height="9" fill="#B088F9" rx="0" transform="matrix(-.59725 .7524 -.7913 -.67747 2807.033 -660.736)"/><rect x="1662" y="442" width="6" height="16" fill="#DA9FF9" rx="0" transform="matrix(-.95496 .12254 -.38302 -.99801 3526.36 870.074)"/><rect x="1197" y="493" width="6" height="7" fill="#DA9FF9" rx="0" transform="matrix(-.12194 .98769 -.99315 -.15643 1856.77 -611.056)"/><rect x="613" y="284" width="8" height="15" fill="#B088F9" rx="0" transform="matrix(1.04399 .57498 -.24823 .82115 153.95 -259.482)"/><rect x="1760" y="524" width="9" height="11" fill="#B088F9" rx="0" transform="matrix(.15684 .96823 -1.08077 -.29602 2307.345 -742.723)"/><rect x="90" y="772" width="8" height="19" fill="#98ACF8" rx="0" transform="matrix(.37523 .94893 -.91725 .34538 911.027 409.174)"/><rect x="1264" y="488" width="8" height="20" fill="#98ACF8" rx="0" transform="matrix(.06954 1.00183 -.99574 .03498 1655.212 -701.077)"/><rect x="967" y="769" width="5" height="10" fill="#bedcfa" rx="0" transform="matrix(-.97312 -.29152 .0366 -1.01665 1787.687 2177.341)"/><rect x="180" y="269" width="8" height="8" fill="#98ACF8" rx="0" transform="matrix(-.52173 .66834 -.89606 -.76884 568.018 395.684)"/><rect x="1126" y="626" width="7" height="17" fill="#98ACF8" rx="0" transform="matrix(-.799 .57366 -.60209 -.81928 2425.417 526.093)"/><rect x="940" y="571" width="8" height="10" fill="#bedcfa" rx="0" transform="matrix(-.46722 .84187 -.88441 -.54672 1981.475 13.592)"/><rect x="1627" y="590" width="6" height="15" fill="#bedcfa" rx="0" transform="matrix(.57164 1.01367 -.89598 .16055 1422.857 -774.393)"/><rect x="864" y="629" width="8" height="19" fill="#DA9FF9" rx="0" transform="matrix(.43429 .87944 -.89636 .48748 947.787 -344.877)"/><rect x="598" y="124" width="5" height="8" fill="#98ACF8" rx="0" transform="matrix(1.00282 .24225 -.1058 .97163 25.8 -110.37)"/><rect x="590" y="82" width="6" height="10" fill="#98ACF8" rx="0" transform="matrix(-.93217 .39169 -.357 -.92275 1163.336 -23.523)"/><rect x="159" y="56" width="7" height="9" fill="#bedcfa" rx="0" transform="matrix(.5631 .95762 -.8721 .29277 139.691 -104.31)"/><rect x="561" y="332" width="9" height="16" fill="#DA9FF9" rx="0" transform="matrix(-.85639 .21629 -.59441 -1.01757 1313.546 725.815)"/><rect x="1344" y="397" width="7" height="18" fill="#B088F9" rx="0" transform="matrix(-.08842 .83082 -1.137 -.62607 2185.73 -72.957)"/><rect x="987" y="715" width="6" height="14" fill="#98ACF8" rx="0" transform="matrix(-.94552 .15885 -.32557 -1.00293 2161.124 1463.416)"/><rect x="667" y="966" width="6" height="17" fill="#bedcfa" rx="0" transform="matrix(.88963 .3956 -.43196 .93198 586.17 -304.884)"/><rect x="769" y="492" width="7" height="8" fill="#bedcfa" rx="0" transform="matrix(.35493 1.0252 -.92554 .14408 932.833 -160.442)"/><rect x="234" y="783" width="8" height="21" fill="#98ACF8" rx="0" transform="matrix(.15662 .9757 -.98874 .22526 971.657 370.065)"/><rect x="400" y="526" width="6" height="17" fill="#DA9FF9" rx="0" transform="matrix(.79539 .4118 -.64185 .92493 376.06 -189.664)"/><rect x="759" y="579" width="9" height="24" fill="#DA9FF9" rx="0" transform="matrix(-.96731 .03544 -.51817 -1.0148 2030.128 1298.32)"/><rect x="234" y="688" width="5" height="13" fill="#98ACF8" rx="0" transform="matrix(-.36054 .96607 -.93851 -.25886 887.784 649.93)"/><rect x="531" y="651" width="7" height="17" fill="#98ACF8" rx="0" transform="matrix(.98952 .10467 -.13905 .99589 108.331 -81.246)"/><rect x="361" y="786" width="7" height="8" fill="#B088F9" rx="0" transform="matrix(.22975 1.00244 -1.0096 -.05254 1238.1 498.002)"/><rect x="1280" y="391" width="7" height="12" fill="#B088F9" rx="0" transform="matrix(.02818 .93872 -1.0761 -.36034 1837.162 -529.894)"/><rect x="1978" y="864" width="8" height="11" fill="#DA9FF9" rx="0" transform="matrix(.85917 .86785 -.63603 .52146 1127.218 -990.073)"/><rect x="880" y="454" width="8" height="13" fill="#98ACF8" rx="0" transform="matrix(.90362 .69508 -.50296 .71978 430.256 -454.54)"/><rect x="1352" y="693" width="6" height="8" fill="#B088F9" rx="0" transform="matrix(1.04148 .13936 .23504 .99163 29.516 -111.99)"/><rect x="406" y="496" width="7" height="13" fill="#DA9FF9" rx="0" transform="matrix(-.83625 .41301 -.543 -.92764 1014.77 871.716)"/><rect x="1708" y="245" width="5" height="8" fill="#bedcfa" rx="0" transform="matrix(-.10804 .93828 -1.0154 -.43753 2197.594 -788.655)"/><rect x="1197" y="151" width="8" height="11" fill="#98ACF8" rx="0" transform="matrix(.39775 1.00261 -.9415 .1409 907.087 -879.47)"/><rect x="496" y="214" width="9" height="9" fill="#DA9FF9" rx="0" transform="matrix(.253 .9707 -.95763 .27835 537.372 -257.818)"/><rect x="1708" y="573" width="7" height="13" fill="#98ACF8" rx="0" transform="matrix(.8547 .69273 -.49431 .76936 480.727 -593.365)"/><rect x="316" y="438" width="7" height="13" fill="#bedcfa" rx="0" transform="matrix(-.52584 .6365 -.8733 -.84465 904.749 726.602)"/><rect x="470" y="103" width="5" height="10" fill="#DA9FF9" rx="0" transform="matrix(.11384 .9176 -1.03671 .42789 524.828 -446.617)"/><rect x="1703" y="262" width="9" height="19" fill="#DA9FF9" rx="0" transform="matrix(.88254 .4851 -.46927 .87515 322.19 -734.794)"/><rect x="1950" y="941" width="6" height="16" fill="#B088F9" rx="0" transform="matrix(.90639 .45427 -.42247 .89155 645.342 -852.465)"/><rect x="856" y="573" width="8" height="9" fill="#98ACF8" rx="0" transform="matrix(.38729 1.01168 -.91317 .19665 1026.635 -191.687)"/><rect x="1355" y="750" width="8" height="21" fill="#B088F9" rx="0" transform="matrix(.9795 .6625 -.38264 .76213 521.12 -528.449)"/><rect x="985" y="527" width="7" height="8" fill="#bedcfa" rx="0" transform="matrix(-.30862 .93073 -.94974 -.37604 1787.103 -102.864)"/><rect x="107" y="939" width="6" height="9" fill="#98ACF8" rx="0" transform="matrix(-.60924 .6846 -.80737 -.73415 1022.161 1570.485)"/><rect x="1730" y="955" width="5" height="7" fill="#DA9FF9" rx="0" transform="matrix(.53504 .9855 -.901 .20947 1918.095 -736.923)"/><rect x="1627" y="619" width="6" height="9" fill="#B088F9" rx="0" transform="matrix(.29121 1.00368 -.97086 .08781 1898.21 -1267.38)"/><rect x="188" y="426" width="5" height="14" fill="#B088F9" rx="0" transform="matrix(.9197 .51535 -.40977 .85769 231.191 -29.902)"/><rect x="1965" y="440" width="9" height="18" fill="#98ACF8" rx="0" transform="matrix(.03486 .9974 -.99709 .15797 2351.539 -1863.094)"/><rect x="660" y="373" width="8" height="19" fill="#98ACF8" rx="0" transform="matrix(.89302 .51512 -.45507 .8573 265.752 -275.864)"/><rect x="1820" y="34" width="5" height="6" fill="#B088F9" rx="0" transform="matrix(.91056 .56966 -.40547 .84455 171.175 -678.194)"/><rect x="1231" y="771" width="6" height="16" fill="#DA9FF9" rx="0" transform="matrix(.93898 .67587 -.36055 .80547 376.76 -281.527)"/><rect x="283" y="863" width="8" height="23" fill="#DA9FF9" rx="0" transform="matrix(1.08017 .6597 -.22855 .7862 446.619 63.9)"/><rect x="462" y="427" width="5" height="8" fill="#98ACF8" rx="0" transform="matrix(-.77536 .58073 -.61466 -.82936 1165.545 445.139)"/><rect x="1809" y="364" width="9" height="13" fill="#B088F9" rx="0" transform="matrix(-.97404 -.07222 -.08226 -1.03275 3520.38 1370.027)"/><rect x="1547" y="565" width="6" height="12" fill="#DA9FF9" rx="0" transform="matrix(.36134 .97044 -.94036 .24196 1603.32 -1098.401)"/><rect x="1557" y="429" width="9" height="18" fill="#98ACF8" rx="0" transform="matrix(.43815 .9204 -.8914 .4098 1306.768 -1370.43)"/><rect x="765" y="651" width="5" height="6" fill="#bedcfa" rx="0" transform="matrix(.64212 .73314 -.76521 .68366 785.603 -409.47)"/><rect x="1234" y="575" width="6" height="13" fill="#B088F9" rx="0" transform="matrix(-.72459 .32147 -.88066 -.98938 2949.61 1113.872)"/><rect x="1189" y="979" width="6" height="12" fill="#bedcfa" rx="0" transform="matrix(-.91623 .24494 -.40788 -.9824 2706.395 1849.483)"/><rect x="1209" y="430" width="8" height="17" fill="#B088F9" rx="0" transform="matrix(-.51905 .7328 -.86338 -.70766 2244.746 95.702)"/><rect x="197" y="59" width="8" height="12" fill="#bedcfa" rx="0" transform="matrix(.45849 .95814 -.8677 .3678 153.535 -105.088)"/><rect x="1204" y="572" width="9" height="24" fill="#98ACF8" rx="0" transform="matrix(.7874 .64367 -.6152 .7671 604.907 -578.524)"/><rect x="175" y="85" width="8" height="14" fill="#98ACF8" rx="0" transform="matrix(.55064 .90686 -.84594 .42288 173.383 -115.483)"/><rect x="835" y="497" width="8" height="15" fill="#DA9FF9" rx="0" transform="matrix(.31597 .8636 -.96808 .5189 1020.104 -584.868)"/><rect x="347" y="918" width="8" height="18" fill="#98ACF8" rx="0" transform="matrix(.15856 1.02119 -1.01008 -.1985 1303.544 853.22)"/><rect x="1922" y="250" width="9" height="19" fill="#B088F9" rx="0" transform="matrix(-.74291 .60092 -.6416 -.8271 3442.075 -274.046)"/><rect x="1866" y="147" width="5" height="12" fill="#98ACF8" rx="0" transform="matrix(-.80361 .58242 -.56929 -.83179 3426.031 -1137.464)"/><rect x="862" y="541" width="9" height="25" fill="#DA9FF9" rx="0" transform="matrix(.05187 1.00107 -.99621 .05246 1330.02 -282.373)"/><rect x="1604" y="546" width="6" height="7" fill="#B088F9" rx="0" transform="matrix(-.84224 .18365 -.66846 -1.04155 3522.254 1380.036)"/><rect x="822" y="115" width="5" height="9" fill="#B088F9" rx="0" transform="matrix(.98008 .32736 -.20836 .95073 44.918 -177.363)"/><rect x="743" y="810" width="7" height="10" fill="#B088F9" rx="0" transform="matrix(.93358 .19375 -.35837 .99677 341.652 -273.632)"/><rect x="1552" y="467" width="6" height="11" fill="#DA9FF9" rx="0" transform="matrix(-.82707 .517 -.55774 -.86044 3083.376 211.16)"/><rect x="659" y="277" width="8" height="11" fill="#bedcfa" rx="0" transform="matrix(.96167 .62931 -.31286 .83513 130.74 -167.958)"/><rect x="1057" y="599" width="8" height="17" fill="#bedcfa" rx="0" transform="matrix(.80455 .60633 -.58157 .80463 627.744 -654.91)"/><rect x="1196" y="864" width="5" height="11" fill="#98ACF8" rx="0" transform="matrix(-.23205 .87971 -.9973 -.52859 2444.047 551.463)"/><rect x="1431" y="739" width="5" height="12" fill="#B088F9" rx="0" transform="matrix(.77332 .84162 -.62633 .61147 771.386 -505.96)"/><rect x="1266" y="920" width="8" height="21" fill="#B088F9" rx="0" transform="matrix(-.244 .99467 -.97971 -.10454 2379.97 -257.625)"/><rect x="356" y="308" width="6" height="15" fill="#bedcfa" rx="0" transform="matrix(-.41011 .96185 -.92207 -.2758 765.3 44.677)"/><rect x="565" y="894" width="5" height="14" fill="#B088F9" rx="0" transform="matrix(1.06517 .71018 -.30508 .73541 550.236 -44.005)"/><rect x="1767" y="640" width="6" height="8" fill="#DA9FF9" rx="0" transform="matrix(-.2105 .93586 -.98773 -.35924 2845.848 -657.35)"/><rect x="541" y="638" width="6" height="15" fill="#DA9FF9" rx="0" transform="matrix(-1.01754 -.07083 -.43366 -1.01295 1618.368 1433.816)"/><rect x="559" y="695" width="6" height="11" fill="#DA9FF9" rx="0" transform="matrix(.78683 .5 -.63716 .86603 455.185 -187.15)"/><rect x="1081" y="16" width="7" height="19" fill="#bedcfa" rx="0" transform="matrix(.12282 1.02119 -1.00313 -.1985 988.635 -765.94)"/><rect x="308" y="84" width="9" height="13" fill="#bedcfa" rx="0" transform="matrix(-.82315 .33705 -.57628 -.97887 624.93 157.493)"/><rect x="1066" y="638" width="6" height="14" fill="#bedcfa" rx="0" transform="matrix(1.10104 .31848 .24872 .98017 27.734 -61.131)"/></svg>